<?xml version="1.0" encoding="UTF-8"?>
<svg width="22px" height="20px" viewBox="0 0 22 20" version="1.1" xmlns="http://www.w3.org/2000/svg" xmlns:xlink="http://www.w3.org/1999/xlink">
    <title>Shape</title>
    <g id="Light-Theme" stroke="none" stroke-width="1" fill="none" fill-rule="evenodd">
        <g id="Customise" transform="translate(-286.000000, -57.000000)" fill="#FFFFFF" fill-rule="nonzero">
            <path d="M304.610981,61.1838553 L302.178532,61.1838553 L300.60429,58.0211547 C300.384276,57.580846 299.933267,57.3037259 299.441057,57.3063934 L294.271134,57.3063934 C293.78125,57.3061845 293.333342,57.5829369 293.114364,58.0211547 L291.533659,61.1838553 L289.10121,61.1838553 C287.673575,61.1838553 286.516249,62.3411821 286.516249,63.7688171 L286.516249,74.108664 C286.516249,75.5362989 287.673575,76.6936257 289.10121,76.6936257 L304.610981,76.6936257 C306.038616,76.6936257 307.195943,75.5362989 307.195943,74.108664 L307.195943,63.7688171 C307.195943,62.3411821 306.038616,61.1838553 304.610981,61.1838553 Z M296.856096,72.8161831 C294.714643,72.8161831 292.978653,71.0801929 292.978653,68.9387405 C292.978653,66.7972881 294.714643,65.0612979 296.856096,65.0612979 C298.997548,65.0612979 300.733538,66.7972881 300.733538,68.9387405 C300.733538,69.9671022 300.325023,70.9533449 299.597862,71.6805065 C298.8707,72.407668 297.884457,72.8161831 296.856096,72.8161831 Z" id="Shape"></path>
        </g>
    </g>
</svg>