<?xml version="1.0" encoding="UTF-8"?>
<svg width="20px" height="20px" viewBox="0 0 20 20" version="1.1" xmlns="http://www.w3.org/2000/svg" xmlns:xlink="http://www.w3.org/1999/xlink">
    <title>Shape</title>
    <g id="Light-Theme" stroke="none" stroke-width="1" fill="none" fill-rule="evenodd">
        <g id="Customise" transform="translate(-331.000000, -57.000000)" fill="#FFFFFF" fill-rule="nonzero">
            <path d="M341.205546,57.3063743 C335.848384,57.3063743 331.505546,61.6492122 331.505546,67.0063743 C331.505546,72.3635364 335.848384,76.7063743 341.205546,76.7063743 C346.562708,76.7063743 350.905546,72.3635364 350.905546,67.0063743 C350.905546,64.4337743 349.883585,61.9665414 348.064482,60.1474385 C346.245379,58.3283356 343.778146,57.3063743 341.205546,57.3063743 Z M337.972213,63.773041 C338.865073,63.773041 339.588879,64.4968473 339.588879,65.3897076 C339.588879,66.282568 338.865073,67.0063743 337.972213,67.0063743 C337.079352,67.0063743 336.355546,66.282568 336.355546,65.3897076 C336.355546,64.4968473 337.079352,63.773041 337.972213,63.773041 Z M345.247213,71.523341 C342.946728,73.5839254 339.464364,73.5839254 337.163879,71.523341 C336.82494,71.2389359 336.667828,70.7924878 336.753954,70.3584962 C336.840079,69.9245047 337.155765,69.571883 337.577623,69.4384576 C337.999481,69.3050321 338.460523,69.4119896 338.780546,69.7175243 C340.176515,70.9121694 342.234577,70.9121694 343.630546,69.7175243 C343.950569,69.4119896 344.411612,69.3050321 344.833469,69.4384576 C345.255327,69.571883 345.571013,69.9245047 345.657139,70.3584962 C345.743264,70.7924878 345.586152,71.2389359 345.247213,71.523341 L345.247213,71.523341 Z M344.438879,67.0063743 C343.546019,67.0063743 342.822213,66.282568 342.822213,65.3897076 C342.822213,64.4968473 343.546019,63.773041 344.438879,63.773041 C345.33174,63.773041 346.055546,64.4968473 346.055546,65.3897076 C346.055546,66.282568 345.33174,67.0063743 344.438879,67.0063743 Z" id="Shape"></path>
        </g>
    </g>
</svg>