<?xml version="1.0" encoding="UTF-8"?>
<svg width="26px" height="20px" viewBox="0 0 26 20" version="1.1" xmlns="http://www.w3.org/2000/svg" xmlns:xlink="http://www.w3.org/1999/xlink">
    <title>Group 3</title>
    <g id="Light-Theme" stroke="none" stroke-width="1" fill="none" fill-rule="evenodd">
        <g id="Customise" transform="translate(-237.000000, -57.000000)">
            <g id="Group-3" transform="translate(237.485561, 57.306374)">
                <rect id="Rectangle" fill="#FFFFFF" x="4.54747351e-13" y="-2.84217094e-14" width="24.643648" height="19.3872514" rx="5"></rect>
                <path d="M7.68933436,3.99824534 C8.61731011,3.99824534 9.36958309,4.71999228 9.36958309,5.61031225 C9.36958309,6.50063222 8.61731011,7.22237916 7.68933436,7.22237916 C6.76135861,7.22237916 6.00908563,6.50063222 6.00908563,5.61031225 C6.00908563,4.71999228 6.76135861,3.99824534 7.68933436,3.99824534 Z" id="Path" fill="#191B23"></path>
                <path d="M20.9273651,15.1203283 C20.8274186,15.2864163 20.6427866,15.3888094 20.4428934,15.3890061 L4.20048907,15.3890061 C3.98834531,15.3890061 3.79440926,15.2740107 3.69953569,15.0919632 C3.60466211,14.9099157 3.62513649,14.6920653 3.75242274,14.5292371 L7.1129202,10.230392 C7.2100475,10.105278 7.35905262,10.026837 7.52122064,10.0154497 C7.68340497,10.0025745 7.84313551,10.0596981 7.95696514,10.1712828 L10.860995,12.9574718 L15.5141638,7.00625815 C15.6269858,6.86137177 15.8082059,6.7806548 15.996373,6.79147804 C16.1845401,6.80230128 16.3544106,6.90321272 16.4483821,7.05999371 L20.9290454,14.5829726 C21.0285752,14.7495189 21.0279347,14.954358 20.9273651,15.1203283 Z" id="Path" fill="#191B23"></path>
            </g>
        </g>
    </g>
</svg>