<?xml version="1.0" encoding="UTF-8"?>
<svg width="125px" height="145px" viewBox="0 0 125 145" version="1.1" xmlns="http://www.w3.org/2000/svg" xmlns:xlink="http://www.w3.org/1999/xlink">
    <title>020-direction</title>
    <defs>
        <linearGradient x1="29.1870372%" y1="39.4778248%" x2="56.9417492%" y2="57.2647788%" id="linearGradient-1">
            <stop stop-color="#FFD945" offset="0%"></stop>
            <stop stop-color="#FFCD3E" offset="30.43%"></stop>
            <stop stop-color="#FFAD2B" offset="85.58%"></stop>
            <stop stop-color="#FFA325" offset="100%"></stop>
        </linearGradient>
        <linearGradient x1="51.8866336%" y1="47.3695599%" x2="92.8361156%" y2="30.3161662%" id="linearGradient-2">
            <stop stop-color="#F82814" stop-opacity="0" offset="0%"></stop>
            <stop stop-color="#C0272D" offset="100%"></stop>
        </linearGradient>
        <linearGradient x1="22.5816285%" y1="27.588645%" x2="58.7404797%" y2="67.0068914%" id="linearGradient-3">
            <stop stop-color="#CDEC7A" offset="0%"></stop>
            <stop stop-color="#B0E995" offset="21.57%"></stop>
            <stop stop-color="#87E4BB" offset="56.13%"></stop>
            <stop stop-color="#6EE1D2" offset="83.47%"></stop>
            <stop stop-color="#65E0DB" offset="100%"></stop>
        </linearGradient>
        <linearGradient x1="33.8921053%" y1="56.3743552%" x2="83.3938596%" y2="21.3072834%" id="linearGradient-4">
            <stop stop-color="#CDEC7A" stop-opacity="0" offset="0%"></stop>
            <stop stop-color="#9AD57D" stop-opacity="0.235" offset="23.54%"></stop>
            <stop stop-color="#51B482" stop-opacity="0.604" offset="60.35%"></stop>
            <stop stop-color="#239F85" stop-opacity="0.868" offset="86.79%"></stop>
            <stop stop-color="#119786" offset="100%"></stop>
        </linearGradient>
        <linearGradient x1="75.1666893%" y1="61.4486359%" x2="-34.0918732%" y2="39.3163468%" id="linearGradient-5">
            <stop stop-color="#F82814" stop-opacity="0" offset="0%"></stop>
            <stop stop-color="#C0272D" offset="100%"></stop>
        </linearGradient>
        <linearGradient x1="99.3754303%" y1="79.0469416%" x2="-57.0128848%" y2="21.5858861%" id="linearGradient-6">
            <stop stop-color="#CDEC7A" stop-opacity="0" offset="0%"></stop>
            <stop stop-color="#9AD57D" stop-opacity="0.235" offset="23.54%"></stop>
            <stop stop-color="#51B482" stop-opacity="0.604" offset="60.35%"></stop>
            <stop stop-color="#239F85" stop-opacity="0.868" offset="86.79%"></stop>
            <stop stop-color="#119786" offset="100%"></stop>
        </linearGradient>
        <linearGradient x1="15.6100396%" y1="49.9998738%" x2="92.5090627%" y2="49.9998738%" id="linearGradient-7">
            <stop stop-color="#F8F6FB" offset="0%"></stop>
            <stop stop-color="#EFDCFB" offset="100%"></stop>
        </linearGradient>
        <linearGradient x1="58.5749574%" y1="64.8705686%" x2="38.5938165%" y2="-51.2981858%" id="linearGradient-8">
            <stop stop-color="#EFDCFB" stop-opacity="0" offset="0%"></stop>
            <stop stop-color="#E9D6F7" stop-opacity="0.029" offset="2.87%"></stop>
            <stop stop-color="#C5B5DE" stop-opacity="0.22" offset="22.03%"></stop>
            <stop stop-color="#AA9BCB" stop-opacity="0.414" offset="41.38%"></stop>
            <stop stop-color="#9688BD" stop-opacity="0.608" offset="60.78%"></stop>
            <stop stop-color="#8A7DB5" stop-opacity="0.803" offset="80.28%"></stop>
            <stop stop-color="#8679B2" offset="100%"></stop>
        </linearGradient>
        <linearGradient x1="34.3571648%" y1="25.3617354%" x2="65.9317498%" y2="75.09295%" id="linearGradient-9">
            <stop stop-color="#F8F6FB" offset="0%"></stop>
            <stop stop-color="#EFDCFB" offset="100%"></stop>
        </linearGradient>
        <linearGradient x1="43.2354941%" y1="42.6135716%" x2="58.3454216%" y2="59.1133903%" id="linearGradient-10">
            <stop stop-color="#F8F6FB" offset="0%"></stop>
            <stop stop-color="#EFDCFB" offset="100%"></stop>
        </linearGradient>
        <linearGradient x1="50%" y1="3.71912889%" x2="50%" y2="115.308565%" id="linearGradient-11">
            <stop stop-color="#8A7889" offset="0%"></stop>
            <stop stop-color="#867385" offset="33.44%"></stop>
            <stop stop-color="#7B667B" offset="70.39%"></stop>
            <stop stop-color="#6E566E" offset="100%"></stop>
        </linearGradient>
        <linearGradient x1="61.530415%" y1="64.8551767%" x2="24.912943%" y2="-9.59024085%" id="linearGradient-12">
            <stop stop-color="#EFDCFB" stop-opacity="0" offset="0%"></stop>
            <stop stop-color="#E9D6F7" stop-opacity="0.029" offset="2.87%"></stop>
            <stop stop-color="#C5B5DE" stop-opacity="0.22" offset="22.03%"></stop>
            <stop stop-color="#AA9BCB" stop-opacity="0.414" offset="41.38%"></stop>
            <stop stop-color="#9688BD" stop-opacity="0.608" offset="60.78%"></stop>
            <stop stop-color="#8A7DB5" stop-opacity="0.803" offset="80.28%"></stop>
            <stop stop-color="#8679B2" offset="100%"></stop>
        </linearGradient>
        <linearGradient x1="39.3122746%" y1="36.6418142%" x2="64.337015%" y2="61.2134825%" id="linearGradient-13">
            <stop stop-color="#FFA936" offset="0%"></stop>
            <stop stop-color="#FF8548" offset="41.12%"></stop>
            <stop stop-color="#FF6C54" offset="77.81%"></stop>
            <stop stop-color="#FF6359" offset="100%"></stop>
        </linearGradient>
        <linearGradient x1="51.2437268%" y1="48.849446%" x2="25.7640491%" y2="33.5380657%" id="linearGradient-14">
            <stop stop-color="#F82814" stop-opacity="0" offset="0%"></stop>
            <stop stop-color="#C0272D" offset="100%"></stop>
        </linearGradient>
    </defs>
    <g id="Light-Theme" stroke="none" stroke-width="1" fill="none" fill-rule="evenodd">
        <g id="Onboarder---1" transform="translate(-125.000000, -167.000000)" fill-rule="nonzero">
            <g id="020-direction" transform="translate(125.443624, 167.500000)">
                <g id="Group" transform="translate(62.056376, 32.712565)">
                    <path d="M48.4294588,25.0096941 L3.36705882,25.0096941 C1.50748235,25.0096941 0,23.5022118 0,21.6426353 L0,3.36705882 C0,1.50748235 1.50748235,8.02495325e-15 3.36705882,8.02495325e-15 L48.4294588,8.02495325e-15 C50.5039059,8.02495325e-15 52.4928,0.827576471 53.9548235,2.2992 L60.6107294,8.99858824 C62.5380706,10.9386353 62.5380706,14.0707765 60.6107294,16.0108235 L53.9548235,22.7104941 C52.4928,24.1821176 50.5039059,25.0096941 48.4294588,25.0096941 Z" id="Path" fill="url(#linearGradient-1)"></path>
                    <path d="M0,21.6426353 C0,23.5022118 1.50748235,25.0096941 3.36705882,25.0096941 L48.4294588,25.0096941 C50.5039059,25.0096941 52.4928,24.1821176 53.9548235,22.7104941 L60.6107294,16.0111059 C61.5744,15.0409412 62.0563765,13.7728941 62.0563765,12.5048471 L0,12.5048471 L0,21.6426353 Z" id="Path" fill="url(#linearGradient-2)"></path>
                </g>
                <g id="Group" transform="translate(62.056376, 71.698729)">
                    <path d="M25.1200941,22.0667294 L1.74663529,22.0667294 C0.782117647,22.0667294 8.02495325e-15,20.7365647 8.02495325e-15,19.0958118 L8.02495325e-15,2.97091765 C8.02495325e-15,1.33016471 0.781835294,0 1.74663529,0 L25.1200941,0 C26.1961412,0 27.2275765,0.730164706 27.9859765,2.02870588 L31.4383059,7.93976471 C32.4381176,9.65167059 32.4381176,12.4150588 31.4383059,14.1269647 L27.9859765,20.0380235 C27.2275765,21.3362824 26.1961412,22.0667294 25.1200941,22.0667294 L25.1200941,22.0667294 Z" id="Path" fill="url(#linearGradient-3)"></path>
                    <path d="M0,19.0958118 C0,20.7365647 0.781835294,22.0667294 1.74663529,22.0667294 L25.1200941,22.0667294 C26.1961412,22.0667294 27.2275765,21.3365647 27.9859765,20.0380235 L31.4383059,14.1269647 C31.9380706,13.2711529 32.1882353,12.1521882 32.1882353,11.0335059 L0,11.0335059 L0,19.0958118 Z" id="Path" fill="url(#linearGradient-4)"></path>
                </g>
                <path d="M72.3218824,32.7125647 L65.4237176,32.7125647 C63.5641412,32.7125647 62.0566588,34.2200471 62.0566588,36.0796235 L62.0566588,54.3552 C62.0566588,56.2147765 63.5641412,57.7222588 65.4237176,57.7222588 L97.3318588,57.7222588 L72.3218824,32.7125647 Z" id="Path" fill="url(#linearGradient-5)"></path>
                <path d="M63.8030118,93.7654588 L87.1764706,93.7654588 C88.2525176,93.7654588 89.2839529,93.0352941 90.0423529,91.7367529 L90.7629176,90.5031529 L72.2597647,72 C72.2597647,72 72.2448,71.8944 72.2174118,71.6987294 L63.8027294,71.6987294 C62.8382118,71.6987294 62.0560941,73.0288941 62.0560941,74.6696471 L62.0560941,90.7945412 C62.0560941,92.4352941 62.8382118,93.7654588 63.8030118,93.7654588 Z" id="Path" fill="url(#linearGradient-6)"></path>
                <g id="Group" transform="translate(24.490612, 0.000000)">
                    <g transform="translate(25.108353, 0.000000)">
                        <polygon id="Path" fill="url(#linearGradient-7)" points="2.25402353 18.5079529 22.6608 18.5079529 22.6608 130.335247 2.25402353 130.335247"></polygon>
                        <polygon id="Path" fill="url(#linearGradient-8)" points="22.6608 18.5079529 2.25402353 18.5079529 2.25402353 27.2676706 22.6608 47.6744471"></polygon>
                        <circle id="Oval" fill="url(#linearGradient-9)" cx="12.4574118" cy="11.9229176" r="11.9229176"></circle>
                        <path d="M20.9085176,27.6705882 L4.00630588,27.6705882 C1.79378824,27.6705882 0,25.8768 0,23.6642824 L0,21.5062588 C0,19.2937412 1.79378824,17.4999529 4.00630588,17.4999529 L20.9085176,17.4999529 C23.1210353,17.4999529 24.9148235,19.2937412 24.9148235,21.5062588 L24.9148235,23.6642824 C24.9148235,25.8768 23.1210353,27.6705882 20.9085176,27.6705882 Z" id="Path" fill="url(#linearGradient-10)"></path>
                    </g>
                    <path d="M71.3139999,144 L3.81752932,144 C1.38731756,144 -0.423694209,141.758682 0.0865175554,139.382682 C1.32519991,133.613082 6.42505873,129.491859 12.3262352,129.491859 L62.805294,129.491859 C68.7064705,129.491859 73.8063293,133.613082 75.0450117,139.382682 C75.5552234,141.758682 73.7442117,144 71.3139999,144 L71.3139999,144 Z" id="Path" fill="url(#linearGradient-11)"></path>
                </g>
                <path d="M72.2597647,69.9354353 L61.3335529,59.0092235 C60.7168941,58.2265412 59.7628235,58.0043294 58.6890353,58.0043294 L51.8527059,58.0043294 L51.8527059,82.7316706 L72.2594824,103.138447 L72.2594824,69.9354353 L72.2597647,69.9354353 Z" id="Path" fill="url(#linearGradient-12)"></path>
                <g id="Group" transform="translate(-0.000000, 57.722259)">
                    <path d="M13.6269176,25.0096941 L58.6893176,25.0096941 C60.5488941,25.0096941 62.0563765,23.5022118 62.0563765,21.6426353 L62.0563765,3.36705882 C62.0563765,1.50748235 60.5488941,0 58.6893176,0 L13.6269176,0 C11.5524706,0 9.56357647,0.827576471 8.10155294,2.2992 L1.44564706,8.99858824 C-0.481694118,10.9386353 -0.481694118,14.0707765 1.44564706,16.0108235 L8.10155294,22.7102118 C9.56357647,24.1821176 11.5524706,25.0096941 13.6269176,25.0096941 L13.6269176,25.0096941 Z" id="Path" fill="url(#linearGradient-13)"></path>
                    <path d="M62.0563765,21.6426353 C62.0563765,23.5022118 60.5488941,25.0096941 58.6893176,25.0096941 L13.6269176,25.0096941 C11.5524706,25.0096941 9.56357647,24.1821176 8.10155294,22.7104941 L1.44564706,16.0111059 C0.481976471,15.0409412 0,13.7728941 0,12.5048471 L62.0563765,12.5048471 L62.0563765,21.6426353 Z" id="Path" fill="url(#linearGradient-14)"></path>
                </g>
                <path d="M13.7366882,73.7271059 L13.7366882,71.3241059 L14.0066882,71.3241059 L15.0056882,73.7271059 L16.9226882,73.7271059 C16.9226882,73.7271059 16.2566882,72.1251059 15.8966882,71.3871059 C15.7346882,71.0631059 15.5816882,70.9191059 15.4466882,70.8471059 C16.1036882,70.5681059 16.6256882,70.0281059 16.6256882,69.1101059 C16.6256882,67.6161059 15.3566882,67.3191059 13.7546882,67.3191059 C12.9199382,67.3191059 12.1540945,67.3328871 11.9756765,67.3363324 L11.9366882,67.3371059 L11.9366882,67.3371059 L11.9366882,73.7271059 L13.7366882,73.7271059 Z M13.9346882,70.0821059 C13.7636882,70.0821059 13.7366882,70.0641059 13.7366882,70.0641059 L13.7366882,68.7321059 C13.7366882,68.7321059 13.7546882,68.7231059 13.9886882,68.7231059 C14.5826882,68.7231059 14.8346882,68.9571059 14.8346882,69.3981059 C14.8346882,69.9921059 14.3486882,70.0821059 13.9346882,70.0821059 Z M18.9926882,73.7271059 L19.2086882,72.6021059 L20.7386882,72.6021059 L20.9456882,73.7271059 L22.7906882,73.7271059 L21.3326882,67.3371059 L18.6776882,67.3371059 L18.6776882,67.7151059 L17.2376882,73.7271059 L18.9926882,73.7271059 Z M20.4776882,71.1621059 L19.4966882,71.1621059 L19.8656882,69.2721059 L20.0006882,68.4441059 L20.1356882,69.2721059 L20.4776882,71.1621059 Z M25.3556882,73.7271059 L25.3376882,70.9461059 L25.2476882,70.0641059 L25.2656882,70.0551059 L25.5806882,70.9191059 L26.2916882,72.5571059 L26.8586882,72.5571059 L27.6056882,70.9281059 L27.9476882,70.0551059 L27.9656882,70.0641059 L27.8756882,70.9281059 L27.8576882,73.7271059 L29.6576882,73.7271059 L29.6576882,67.3371059 L27.9566882,67.3371059 L26.9126882,69.7311059 L26.6516882,70.4331059 L26.6336882,70.4331059 L26.3546882,69.7221059 L25.4006882,67.3371059 L23.6456882,67.3371059 L23.6456882,73.7271059 L25.3556882,73.7271059 Z M32.2676882,73.7271059 L32.4836882,72.6021059 L34.0136882,72.6021059 L34.2206882,73.7271059 L36.0656882,73.7271059 L34.6076882,67.3371059 L31.9526882,67.3371059 L31.9526882,67.7151059 L30.5126882,73.7271059 L32.2676882,73.7271059 Z M33.7526882,71.1621059 L32.7716882,71.1621059 L33.1406882,69.2721059 L33.2756882,68.4441059 L33.4106882,69.2721059 L33.7526882,71.1621059 Z M38.5226882,73.7721059 C40.1786882,73.7721059 41.5106882,73.2771059 41.6276882,71.7111059 C41.6816882,70.9731059 41.6276882,70.0101059 41.5826882,69.4071059 C41.4566882,67.6431059 39.9356882,67.2921059 38.5946882,67.2921059 C37.7306882,67.2921059 36.9206882,67.3371059 36.9206882,67.3371059 L36.9206882,73.7271059 C36.9206882,73.7271059 37.6406882,73.7721059 38.5226882,73.7721059 Z M38.9006882,72.2871059 C38.6846882,72.2871059 38.6756882,72.2691059 38.6756882,72.2691059 L38.6756882,68.7951059 C38.6756882,68.7951059 38.6756882,68.7771059 38.9276882,68.7771059 C39.3866882,68.7771059 39.7556882,68.9661059 39.7916882,69.5241059 C39.8276882,70.1181059 39.8276882,71.0811059 39.7916882,71.5311059 C39.7466882,72.0981059 39.3956882,72.2871059 38.9006882,72.2871059 Z M43.9946882,73.7271059 L44.2106882,72.6021059 L45.7406882,72.6021059 L45.9476882,73.7271059 L47.7926882,73.7271059 L46.3346882,67.3371059 L43.6796882,67.3371059 L43.6796882,67.7151059 L42.2396882,73.7271059 L43.9946882,73.7271059 Z M45.4796882,71.1621059 L44.4986882,71.1621059 L44.8676882,69.2721059 L45.0026882,68.4441059 L45.1376882,69.2721059 L45.4796882,71.1621059 Z M50.3576882,73.7271059 L50.3576882,70.3611059 L50.6186882,71.0991059 L52.1306882,73.7271059 L53.7146882,73.7271059 L53.7146882,67.3371059 L52.0046882,67.3371059 L52.0046882,70.9101059 L51.7886882,70.3071059 L50.2046882,67.3371059 L48.6476882,67.3371059 L48.6476882,73.7271059 L50.3576882,73.7271059 Z" id="RAMADAN" fill="#FFFFFF"></path>
                <path d="M93.2548571,48.2319402 L93.2548571,46.7469402 L91.2388571,46.7469402 L91.2388571,45.7119402 L93.0658571,45.7119402 L93.0658571,44.2719402 L91.2388571,44.2719402 L91.2388571,43.3269402 L93.2548571,43.3269402 L93.2548571,41.8419402 L89.4388571,41.8419402 L89.4388571,48.2319402 L93.2548571,48.2319402 Z M96.3148571,48.2319402 L96.3148571,41.8419402 L94.5148571,41.8419402 L94.5148571,48.2319402 L96.3148571,48.2319402 Z M99.2668571,48.2769402 C100.922857,48.2769402 102.254857,47.7819402 102.371857,46.2159402 C102.425857,45.4779402 102.371857,44.5149402 102.326857,43.9119402 C102.200857,42.1479402 100.679857,41.7969402 99.3388571,41.7969402 C98.4748571,41.7969402 97.6648571,41.8419402 97.6648571,41.8419402 L97.6648571,48.2319402 C97.6648571,48.2319402 98.3848571,48.2769402 99.2668571,48.2769402 Z M99.6448571,46.7919402 C99.4288571,46.7919402 99.4198571,46.7739402 99.4198571,46.7739402 L99.4198571,43.2999402 C99.4198571,43.2999402 99.4198571,43.2819402 99.6718571,43.2819402 C100.130857,43.2819402 100.499857,43.4709402 100.535857,44.0289402 C100.571857,44.6229402 100.571857,45.5859402 100.535857,46.0359402 C100.490857,46.6029402 100.139857,46.7919402 99.6448571,46.7919402 Z" id="EID" fill="#FFFFFF"></path>
            </g>
        </g>
    </g>
</svg>