<?xml version="1.0" encoding="UTF-8"?>
<svg width="117px" height="117px" viewBox="0 0 117 117" version="1.1" xmlns="http://www.w3.org/2000/svg" xmlns:xlink="http://www.w3.org/1999/xlink">
    <title>paint-palette</title>
    <defs>
        <linearGradient x1="57.2838365%" y1="3.45354713%" x2="52.1133707%" y2="71.6899726%" id="linearGradient-1">
            <stop stop-color="#3A4F56" offset="0%"></stop>
            <stop stop-color="#546F7A" offset="100%"></stop>
        </linearGradient>
        <linearGradient x1="50%" y1="0%" x2="103.705595%" y2="-19.5280322%" id="linearGradient-2">
            <stop stop-color="#6A8A92" offset="0%"></stop>
            <stop stop-color="#475D63" offset="100%"></stop>
        </linearGradient>
        <linearGradient x1="50%" y1="0%" x2="77.2337095%" y2="-19.5280322%" id="linearGradient-3">
            <stop stop-color="#6A8A92" offset="0%"></stop>
            <stop stop-color="#475D63" offset="100%"></stop>
        </linearGradient>
        <linearGradient x1="50%" y1="0%" x2="50%" y2="100%" id="linearGradient-4">
            <stop stop-color="#00DCA5" offset="0%"></stop>
            <stop stop-color="#00B76C" offset="100%"></stop>
        </linearGradient>
        <radialGradient cx="50%" cy="0%" fx="50%" fy="0%" r="100.001849%" gradientTransform="translate(0.500000,0.000000),scale(1.000000,0.999982),rotate(90.000000),translate(-0.500000,-0.000000)" id="radialGradient-5">
            <stop stop-color="#6BD1FD" offset="0%"></stop>
            <stop stop-color="#39A4FA" offset="100%"></stop>
        </radialGradient>
        <linearGradient x1="50%" y1="0%" x2="50%" y2="100%" id="linearGradient-6">
            <stop stop-color="#FF7884" offset="0%"></stop>
            <stop stop-color="#FF434D" offset="100%"></stop>
        </linearGradient>
        <radialGradient cx="50%" cy="0%" fx="50%" fy="0%" r="100%" id="radialGradient-7">
            <stop stop-color="#FFEA6B" offset="0%"></stop>
            <stop stop-color="#FFD039" offset="100%"></stop>
        </radialGradient>
        <linearGradient x1="86.0763386%" y1="-10.9075899%" x2="32.5684135%" y2="99.9984701%" id="linearGradient-8">
            <stop stop-color="#FFEA6B" offset="0%"></stop>
            <stop stop-color="#FFD039" offset="100%"></stop>
        </linearGradient>
    </defs>
    <g id="Light-Theme" stroke="none" stroke-width="1" fill="none" fill-rule="evenodd">
        <g id="Onboarder---3" transform="translate(-129.000000, -195.000000)" fill-rule="nonzero">
            <g id="paint-palette" transform="translate(129.647778, 195.074468)">
                <path d="M100.436249,78.3790346 C98.9315806,73.1637436 95.7107661,68.6945336 92.5954625,64.3724479 C89.7755443,60.4598995 87.1120735,56.7645128 85.6190017,52.5736336 C85.4170755,52.0074215 84.931361,51.5899254 84.3412725,51.4757734 C83.7498196,51.3618488 83.1442682,51.5676407 82.7461006,52.0176543 L70.024065,66.3871625 L59.8929614,56.2560589 L87.7585558,31.5851287 C88.0414345,31.3347674 88.2329006,30.9970867 88.3022559,30.6257516 C89.3771493,24.8840425 88.6469858,19.6016702 86.1326857,14.9248491 C83.8280433,10.6382369 80.0178224,7.00561109 75.1140617,4.42013654 C67.336263,0.318395993 57.0312027,-1.00958742 46.8430231,0.776595748 C35.524011,2.76083945 25.1195794,8.23103962 16.755103,16.5957433 C5.95022978,27.4006166 0,41.7662591 0,57.0462545 C0,72.3262499 5.95045718,86.6921198 16.7553304,97.4967656 C23.4946188,104.236054 32.2356603,109.555492 42.0334037,112.879998 C48.9616569,115.231029 55.9490326,116.425532 62.6191931,116.425532 C65.3902215,116.425532 68.108267,116.219058 70.7421766,115.803836 C83.2988964,113.823912 92.7134802,107.345445 97.9678831,97.0685819 C101.349238,90.45527 102.156488,84.3417711 100.436249,78.3790346 Z" id="Path" fill="url(#linearGradient-1)"></path>
                <path d="M113.724042,12.5560815 C113.613301,12.4453404 113.498467,12.340739 113.382041,12.2390937 C113.356573,12.2170364 113.33156,12.1949791 113.305864,12.1733767 C113.189211,12.0746875 113.070511,11.9796366 112.948855,11.8902706 C112.936576,11.8814022 112.924069,11.8729886 112.912017,11.8641203 C112.793999,11.7783926 112.673708,11.6976675 112.551369,11.6203534 C112.533633,11.6092111 112.516351,11.597614 112.498614,11.5866991 C112.365588,11.5043823 112.230516,11.427523 112.093624,11.3552115 C112.082482,11.3492993 112.071112,11.3438418 112.05997,11.3379296 C111.772771,11.1887588 111.476931,11.0616454 111.174951,10.9563617 C111.169721,10.9545426 111.164491,10.9527234 111.159488,10.9511317 C110.850232,10.8442563 110.534608,10.759893 110.215347,10.6989513 C110.215347,10.6989513 110.215347,10.6989513 110.215119,10.6989513 C108.21564,10.3164738 106.071083,10.8335687 104.444076,12.2743398 L56.2880777,54.9082922 C56.2616999,54.9317138 56.2380509,54.9569546 56.2132649,54.9815132 L56.2134923,54.9817406 C56.1545972,55.0408631 56.0982033,55.1027144 56.0479492,55.1709327 L48.2180771,65.7686496 C47.7182642,66.4449206 47.7885291,67.3851966 48.3831655,67.979833 L53.9545562,73.551451 L53.9545562,73.551451 L58.3000635,77.8969584 C58.6293306,78.2262255 59.0645636,78.3947248 59.5020704,78.3947248 C59.8549866,78.3947248 60.2094945,78.2853481 60.5114742,78.0620468 L71.1091912,70.2319473 C71.1776369,70.1814657 71.239943,70.1246171 71.2992929,70.0652672 L71.2992929,70.0652672 C71.3236241,70.040936 71.3486375,70.0177418 71.3716043,69.9915914 L114.006011,21.8365025 C116.375234,19.160525 116.251531,15.0837978 113.724042,12.5560815 Z" id="Path" fill="#FFD039"></path>
                <g id="Group" transform="translate(51.856843, 0.001727)">
                    <path d="M34.2760705,14.9226673 C31.971428,10.6360551 28.1612071,7.00342923 23.2574465,4.41795468 C16.7557852,0.989756408 8.48863369,-0.498994858 0,0.147487477 C5.70418902,0.591588779 11.0750178,2.03599813 15.5926628,4.41818207 C20.4964234,7.00388402 24.3066443,10.6362825 26.6112868,14.9228947 C29.1258143,19.5997157 29.8555229,24.8820881 28.7808569,30.6237972 L26.244727,40.1332044 L35.9017132,31.5834016 C36.1845918,31.3330404 36.3760579,30.9953597 36.4454132,30.6240246 C37.520534,24.8820881 36.790598,19.5994883 34.2760705,14.9226673 Z" id="Path" fill="url(#linearGradient-2)"></path>
                    <path d="M48.5794069,78.3773075 C47.074738,73.1620165 43.8539234,68.6928066 40.7386199,64.3707208 C37.9187017,60.4581724 35.2552308,56.7627857 33.7621591,52.5719066 C33.5602328,52.0056945 33.0745183,51.5881983 32.4844298,51.4740463 C31.8929769,51.3601217 31.2874256,51.5659137 30.889258,52.0159272 L27.5192727,55.822055 C29.0196211,58.7422542 31.00341,61.4982745 33.0738362,64.3704934 C36.1889123,68.6925792 39.4101817,73.1617891 40.9146232,78.3770801 C42.6348619,84.3398166 41.8273844,90.4533156 38.4458019,97.0668549 C33.1913991,107.343718 23.7768153,113.822413 11.2200955,115.802109 C9.79660639,116.026547 8.34810394,116.187769 6.88027296,116.290552 C8.18392517,116.378781 9.47893639,116.423805 10.7618957,116.423805 C13.5329241,116.423805 16.2509696,116.217331 18.8848792,115.802109 C31.441599,113.822185 40.8561828,107.343718 46.1105856,97.0668549 C49.4923955,90.453543 50.2996456,84.340044 48.5794069,78.3773075 Z" id="Path" fill="url(#linearGradient-3)"></path>
                </g>
                <path d="M57.6751836,15.1690708 C53.7780981,11.2719852 47.4372047,11.2719852 43.5401191,15.1690708 C39.6430336,19.0661563 39.6430336,25.4070497 43.5401191,29.3041353 C45.4886619,31.2526781 48.0482135,32.2270632 50.6075377,32.2270632 C53.1668619,32.2270632 55.7266409,31.2529055 57.6749563,29.3041353 C61.5722692,25.4068223 61.5722692,19.0659289 57.6751836,15.1690708 Z" id="Path" fill="url(#linearGradient-4)"></path>
                <path d="M32.6285979,32.8057819 C28.7315123,28.9086964 22.3903915,28.9086964 18.4935334,32.8057819 C14.5966752,36.7028675 14.5964478,43.0437609 18.4935334,46.9408465 C20.4423035,48.8896167 23.0011729,49.8637743 25.5609519,49.8637743 C28.1200487,49.8637743 30.6802825,48.8893893 32.6285979,46.9408465 C36.5254561,43.0437609 36.5254561,36.7028675 32.6285979,32.8057819 Z" id="Path" fill="url(#radialGradient-5)"></path>
                <path d="M29.2370101,62.161492 C25.3399246,58.2644064 18.9990312,58.2644064 15.1019456,62.161492 C11.20486,66.0585775 11.20486,72.3994709 15.1019456,76.2965565 C17.0504884,78.2450993 19.61004,79.2194844 22.1693642,79.2194844 C24.7289158,79.2194844 27.2884673,78.2453267 29.2370101,76.2965565 C33.1338683,72.3994709 33.1338683,66.0585775 29.2370101,62.161492 Z" id="Path" fill="url(#linearGradient-6)"></path>
                <path d="M79.9978116,84.6673999 C76.1007261,80.7700869 69.7596053,80.7705417 65.8625197,84.6673999 C61.9654342,88.5644854 61.9654342,94.9053788 65.8625197,98.8024644 C67.8110625,100.751007 70.3708415,101.725392 72.9301657,101.725392 C75.4894899,101.725392 78.0492689,100.751235 79.9975843,98.8024644 C83.8948972,94.9051514 83.8948972,88.564258 79.9978116,84.6673999 Z" id="Path" fill="url(#radialGradient-7)"></path>
                <path d="M56.2137197,54.9817406 C56.1548246,55.0408631 56.0984307,55.1027144 56.0481766,55.1709327 L48.2180771,65.7686496 C47.7182642,66.4449206 47.7885291,67.3851966 48.3831655,67.979833 L58.2998361,77.8969584 C58.6291032,78.2262255 59.0643362,78.3947248 59.501843,78.3947248 C59.8547592,78.3947248 60.2092671,78.2853481 60.5112468,78.0620468 L71.1089638,70.2319473 C71.1774095,70.1814657 71.2397156,70.1246171 71.2990655,70.0652672 L56.2137197,54.9817406 Z" id="Path" fill="#FFAE47"></path>
                <path d="M71.2992929,70.0652672 L65.9336942,64.7003507 L53.9545562,73.5509963 L58.3000635,77.8965036 C58.6293306,78.2257707 59.0645636,78.39427 59.5020704,78.39427 C59.8549866,78.39427 60.2094945,78.2848933 60.5114742,78.061592 L71.1091912,70.2314925 C71.1776369,70.1814657 71.239943,70.1246171 71.2992929,70.0652672 Z" id="Path" fill="#E29440"></path>
                <polygon id="Rectangle" fill="#546F7A" transform="translate(51.953889, 74.325489) rotate(-135.000000) translate(-51.953889, -74.325489) " points="42.9846298 70.663223 60.9231488 70.663223 60.9231488 77.9877544 42.9846298 77.9877544"></polygon>
                <path d="M54.5648828,80.1211032 C54.499848,79.7897896 54.3377157,79.4853084 54.0989516,79.2467717 L47.0335796,72.1811723 C46.7948155,71.9424081 46.4903343,71.7802759 46.159248,71.7152411 C42.6614671,71.0291921 39.0704544,72.1222771 36.5534256,74.639306 C32.8071025,78.385629 29.4075559,93.5121332 29.0321277,95.2246406 C28.9081978,95.7903979 29.0807902,96.380259 29.4905549,96.7900238 C29.8127728,97.1122417 30.246414,97.2877902 30.6918796,97.2877902 C30.8128535,97.2877902 30.9347369,97.2748287 31.0554833,97.2484509 C32.7679907,96.8730227 47.8942675,93.4734762 51.6408179,89.7271531 C54.1578468,87.2096695 55.2509317,83.6188842 54.5648828,80.1211032 Z" id="Path" fill="#FF6137"></path>
                <path d="M54.5648828,80.1211032 C54.499848,79.7897896 54.3377157,79.4853084 54.0989516,79.2467717 L49.0255547,74.1733748 C49.0817211,74.2952582 49.1272,74.4219169 49.1535778,74.5549426 C49.8398541,78.0527236 48.7467692,81.6437363 46.2295129,84.1607651 C43.6087922,86.7814858 35.4198644,89.2323428 30.1488617,90.5969368 C29.5449022,92.9209077 29.1467345,94.7007238 29.0319004,95.2246406 C28.9079704,95.7903979 29.0805628,96.380259 29.4903275,96.7900238 C29.8125454,97.1122417 30.2461866,97.2877902 30.6916522,97.2877902 C30.8126261,97.2877902 30.9345095,97.2748287 31.0552559,97.2484509 C32.7677633,96.8730227 47.8940401,93.4734762 51.6405905,89.7271531 C54.1578468,87.2096695 55.2509317,83.6188842 54.5648828,80.1211032 Z" id="Path" fill="#E04F32"></path>
                <path d="M62.0870902,76.8775492 L49.4023473,64.1928063 C48.7388103,63.5292694 47.66278,63.5292694 46.9994704,64.1928063 L41.8210173,69.3712594 C41.5022103,69.689839 41.3232509,70.1221158 41.3232509,70.5725841 C41.3232509,71.0232799 41.5022103,71.4555567 41.8210173,71.7741363 L54.5057602,84.4588792 C54.8243398,84.7776862 55.2566166,84.9566456 55.7070849,84.9566456 C56.1577807,84.9566456 56.5900575,84.7776862 56.9084097,84.4588792 L62.0868628,79.2804261 C62.7503997,78.6171165 62.7503997,77.5413135 62.0870902,76.8775492 Z" id="Path" fill="#E0E0E0"></path>
                <path d="M62.0870902,79.2806535 C62.7506271,78.6171165 62.7506271,77.5410861 62.0870902,76.8777766 L57.9219066,72.712593 L50.3403492,80.2941504 L54.5055328,84.459334 C54.8241124,84.7781409 55.2563892,84.9571004 55.7068575,84.9571004 C56.1575533,84.9571004 56.5898301,84.7781409 56.9081823,84.459334 L62.0870902,79.2806535 Z" id="Path" fill="#C6C5CA"></path>
                <path d="M113.724042,12.5560815 C111.196553,10.0283651 107.119826,9.90443515 104.443621,12.2743398 C92.4254007,22.9146391 83.4117352,30.8948636 77.4026249,36.2150133 C72.7105538,40.3691258 65.6724472,46.6002945 56.2883051,54.9085195 C56.2619273,54.9319412 56.2382783,54.957182 56.2134923,54.9819679 L71.2992929,70.0654946 C71.3236241,70.0411634 71.3486375,70.0179692 71.3716043,69.9918188 L114.006011,21.8365025 C116.375234,19.160525 116.251531,15.0840252 113.724042,12.5560815 Z" id="Path" fill="url(#linearGradient-8)"></path>
                <path d="M113.724042,12.5560815 C112.733058,11.5650966 111.503991,10.9454468 110.214664,10.6987239 C110.597824,12.6988852 110.080729,14.8438967 108.639958,16.4713586 L66.005096,64.6264475 C65.9821292,64.6523704 65.9573432,64.6755647 65.933012,64.6998959 L71.2992929,70.0652672 C71.3236241,70.040936 71.3486375,70.0177418 71.3716043,69.9915914 L114.006011,21.8365025 C116.375234,19.160525 116.251531,15.0840252 113.724042,12.5560815 Z" id="Path" fill="#FFAE47"></path>
            </g>
        </g>
    </g>
</svg>