<?xml version="1.0" encoding="UTF-8"?>
<svg width="25px" height="16px" viewBox="0 0 25 16" version="1.1" xmlns="http://www.w3.org/2000/svg" xmlns:xlink="http://www.w3.org/1999/xlink">
    <title>Aa</title>
    <g id="Light-Theme" stroke="none" stroke-width="1" fill="none" fill-rule="evenodd">
        <g id="Customise" transform="translate(-187.000000, -58.000000)" fill="#FFFFFF" fill-rule="nonzero">
            <path d="M191.602551,73 L192.082551,70.5 L195.482551,70.5 L195.942551,73 L200.042551,73 L196.802551,58.8 L190.902551,58.8 L190.902551,59.64 L187.702551,73 L191.602551,73 Z M194.902551,67.3 L192.722551,67.3 L193.542551,63.1 L193.842551,61.26 L194.142551,63.1 L194.902551,67.3 Z M204.911122,73.3 C206.111122,73.3 206.951122,72.78 207.551122,71.98 L207.591122,71.98 C208.411122,73.6 210.651122,73.32 211.511122,73 L211.511122,70.5 C210.631122,70.5 210.471122,70.32 210.471122,69.54 L210.471122,66.38 C210.471122,64 208.711122,62.8 206.471122,62.8 C203.911122,62.8 202.231122,64.26 202.431122,66.6 L205.731122,66.5 C205.651122,65.94 205.951122,65.7 206.331122,65.7 C206.631122,65.7 206.871122,65.9 206.871122,66.4 L206.871122,67.08 C206.871122,67.08 205.411122,67.36 204.071122,67.76 C202.571122,68.2 201.971122,68.92 201.971122,70.26 C201.971122,72.04 203.251122,73.3 204.911122,73.3 Z M206.231122,70.5 C205.851122,70.5 205.571122,70.26 205.571122,69.74 C205.571122,69.32 205.691122,69.02 206.091122,68.88 C206.431122,68.76 206.871122,68.66 206.871122,68.66 L206.871122,69.82 C206.871122,70.26 206.591122,70.5 206.231122,70.5 Z" id="Aa"></path>
        </g>
    </g>
</svg>