<?xml version="1.0" encoding="UTF-8"?>
<svg width="205px" height="125px" viewBox="0 0 205 125" version="1.1" xmlns="http://www.w3.org/2000/svg" xmlns:xlink="http://www.w3.org/1999/xlink">
    <title>IslamicGreetings</title>
    <g id="Page-1" stroke="none" stroke-width="1" fill="none" fill-rule="evenodd">
        <g id="iPhone-8" transform="translate(-88.000000, -79.000000)" fill="#FFFFFF" fill-rule="nonzero">
            <path d="M130.936605,119.588 C135.183272,119.588 138.155938,115.913 139.854605,108.563 C140.736605,104.577667 141.177605,100.298333 141.177605,95.725 C141.177605,95.529 141.193938,95.284 141.226605,94.99 C141.291938,87.15 140.409938,82.3153333 138.580605,80.486 C137.959938,79.8326667 137.224938,79.506 136.375605,79.506 C134.154272,79.506 132.471938,80.5676667 131.328605,82.691 C130.740605,83.8016667 130.364938,85.141 130.201605,86.709 C130.201605,86.7743333 130.185272,86.8886667 130.152605,87.052 C130.087272,88.13 130.128105,89.2406667 130.275105,90.384 C130.422105,91.5273333 130.658938,92.589 130.985605,93.569 C131.312272,94.549 131.720605,95.382 132.210605,96.068 C132.439272,96.3946667 132.708772,96.4518333 133.019105,96.2395 C133.329438,96.0271667 133.386605,95.7576667 133.190605,95.431 C132.765938,94.843 132.406605,94.1325 132.112605,93.2995 C131.818605,92.4665 131.606272,91.5763333 131.475605,90.629 C131.344938,89.6816667 131.279605,88.7343333 131.279605,87.787 C131.312272,87.7543333 131.328605,87.7053333 131.328605,87.64 L131.328605,87.64 L131.328605,87.199 C131.328605,87.003 131.344938,86.7906667 131.377605,86.562 L131.377605,86.562 L131.377605,86.513 C131.573605,85.239 131.998272,84.1691667 132.651605,83.3035 C133.304938,82.4378333 134.039938,82.005 134.856605,82.005 C135.901938,82.005 136.653272,83.426 137.110605,86.268 C137.469938,88.326 137.649605,91.3476667 137.649605,95.333 C137.649605,97.5216667 137.535272,99.792 137.306605,102.144 C137.077938,104.496 136.710438,106.888833 136.204105,109.3225 C135.697772,111.756167 134.954605,113.757 133.974605,115.325 C132.994605,116.893 131.834938,117.677 130.495605,117.677 C129.515605,117.677 128.698938,117.383 128.045605,116.795 C127.392272,116.207 127.016605,115.439333 126.918605,114.492 L126.918605,114.492 L126.918605,114.149 C126.918605,114.051 126.902272,113.969333 126.869605,113.904 C126.836938,113.838667 126.796105,113.7815 126.747105,113.7325 C126.698105,113.6835 126.632772,113.642667 126.551105,113.61 C126.469438,113.577333 126.395938,113.561 126.330605,113.561 C126.167272,113.561 126.028438,113.618167 125.914105,113.7325 C125.799772,113.846833 125.742605,113.985667 125.742605,114.149 L125.742605,114.149 L125.742605,114.639 C125.775272,114.704333 125.791605,114.786 125.791605,114.884 C125.954938,116.158 126.477605,117.252333 127.359605,118.167 C128.339605,119.114333 129.515605,119.588 130.887605,119.588 L130.887605,119.588 L130.936605,119.588 Z M150.443575,119.588 C151.423575,119.588 152.289242,119.400167 153.040575,119.0245 C153.791908,118.648833 154.355408,118.175167 154.731075,117.6035 C155.106742,117.031833 155.376242,116.460167 155.539575,115.8885 C155.702908,115.316833 155.784575,114.769667 155.784575,114.247 C155.784575,113.201667 155.457908,112.189 154.804575,111.209 C158.201908,109.347 160.994908,107.468667 163.183575,105.574 C163.477575,105.312667 163.493908,105.035 163.232575,104.741 C162.971242,104.447 162.693575,104.430667 162.399575,104.692 C160.276242,106.521333 157.499575,108.383333 154.069575,110.278 C153.710242,109.886 153.138575,109.347 152.354575,108.661 C151.701242,108.105667 151.219408,107.664667 150.909075,107.338 C150.598742,107.011333 150.288408,106.5785 149.978075,106.0395 C149.667742,105.5005 149.512575,104.953333 149.512575,104.398 C149.512575,103.679333 149.863742,102.9525 150.566075,102.2175 C151.268408,101.4825 152.272908,101.115 153.579575,101.115 C154.461575,101.115 155.392575,101.507 156.372575,102.291 L156.372575,102.291 L156.421575,102.291 L156.421575,102.291 L156.421575,102.34 L156.421575,102.34 L156.519575,102.34 C156.519575,102.372667 156.535908,102.389 156.568575,102.389 L156.568575,102.389 L156.911575,102.389 C156.911575,102.389 156.927908,102.372667 156.960575,102.34 L156.960575,102.34 L157.058575,102.34 L157.107575,102.291 C157.107575,102.291 157.123908,102.274667 157.156575,102.242 L157.156575,102.242 L157.156575,102.193 L157.205575,102.193 L157.205575,102.193 L157.205575,102.144 C157.238242,102.111333 157.254575,102.095 157.254575,102.095 L157.254575,102.095 L157.254575,102.046 C157.287242,102.013333 157.303575,101.988833 157.303575,101.9725 L157.303575,101.9725 L157.303575,101.654 C157.270908,101.621333 157.254575,101.588667 157.254575,101.556 C156.829908,100.772 156.160242,100.1595 155.245575,99.7185 C154.330908,99.2775 153.269242,99.057 152.060575,99.057 C150.231242,99.057 148.720408,99.6531667 147.528075,100.8455 C146.335742,102.037833 145.739575,103.271 145.739575,104.545 C145.739575,105.296333 145.837575,105.9905 146.033575,106.6275 C146.229575,107.2645 146.548075,107.844333 146.989075,108.367 C147.430075,108.889667 147.813908,109.289833 148.140575,109.5675 C148.467242,109.845167 148.924575,110.212667 149.512575,110.67 C150.263908,111.225333 150.802908,111.666333 151.129575,111.993 C149.953575,112.711667 149.071575,113.422167 148.483575,114.1245 C147.895575,114.826833 147.601575,115.635333 147.601575,116.55 C147.601575,117.366667 147.862908,118.077167 148.385575,118.6815 C148.908242,119.285833 149.594242,119.588 150.443575,119.588 Z M150.590575,118.412 L150.443575,118.412 C149.920908,118.412 149.512575,118.224167 149.218575,117.8485 C148.924575,117.472833 148.777575,117.04 148.777575,116.55 C148.777575,115.864 149.030742,115.235167 149.537075,114.6635 C150.043408,114.091833 150.835575,113.495667 151.913575,112.875 C152.534242,113.724333 152.844575,114.720667 152.844575,115.864 C152.844575,116.256 152.754742,116.639833 152.575075,117.0155 C152.395408,117.391167 152.134075,117.709667 151.791075,117.971 C151.448075,118.232333 151.047908,118.379333 150.590575,118.412 L150.590575,118.412 Z M166.422545,119.588 C167.402545,119.588 168.513212,118.820333 169.754545,117.285 L169.754545,117.285 L169.754545,117.236 C169.917878,117.072667 170.113878,116.844 170.342545,116.55 C170.407878,116.452 170.456878,116.370333 170.489545,116.305 C170.881545,115.717 171.306212,115.047333 171.763545,114.296 C173.135545,111.976667 174.638212,108.987667 176.271545,105.329 C176.434878,104.969667 176.336878,104.7165 175.977545,104.5695 C175.618212,104.4225 175.356878,104.528667 175.193545,104.888 C172.678212,110.539333 170.522212,114.475667 168.725545,116.697 C168.431545,116.958333 168.170212,117.089 167.941545,117.089 C167.288212,117.089 166.716545,116.631667 166.226545,115.717 C165.279212,113.855 164.805545,110.539333 164.805545,105.77 L164.805545,105.77 L164.805545,104.349 C166.700212,101.605 168.676545,98.3546667 170.734545,94.598 C172.792545,90.8413333 174.148212,87.6236667 174.801545,84.945 L174.801545,84.945 L174.801545,84.896 C174.801545,84.8633333 174.817878,84.8143333 174.850545,84.749 L174.850545,84.749 L174.850545,84.553 C174.948545,84.2263333 175.013878,83.916 175.046545,83.622 L175.046545,83.622 L175.046545,83.573 C175.177212,82.397 175.079212,81.466 174.752545,80.78 C174.295212,79.898 173.478545,79.457 172.302545,79.457 C170.963212,79.457 169.615712,80.2246667 168.260045,81.76 C166.904378,83.2953333 165.654878,85.4676667 164.511545,88.277 C163.792878,90.041 163.172212,91.9356667 162.649545,93.961 C162.126878,95.9863333 161.726712,98.0525 161.449045,100.1595 C161.171378,102.2665 161.032545,104.3 161.032545,106.26 C161.032545,108.873333 161.195878,111.102833 161.522545,112.9485 C161.849212,114.794167 162.290212,116.174333 162.845545,117.089 C163.400878,118.003667 163.964378,118.648833 164.536045,119.0245 C165.107712,119.400167 165.736545,119.588 166.422545,119.588 Z M164.952545,102.046 C165.377212,97.3746667 166.487878,92.8993333 168.284545,88.62 C168.937878,87.052 169.615712,85.6881667 170.318045,84.5285 C171.020378,83.3688333 171.608378,82.5603333 172.082045,82.103 C172.555712,81.6456667 172.906878,81.417 173.135545,81.417 C173.331545,81.417 173.494878,81.4986667 173.625545,81.662 C173.919545,82.0213333 174.001212,82.6746667 173.870545,83.622 C173.543878,85.7126667 172.482212,88.5383333 170.685545,92.099 C168.888878,95.6596667 166.977878,98.9753333 164.952545,102.046 Z M187.840515,115.472 C189.114515,115.472 190.568182,114.459333 192.201515,112.434 C192.234182,112.434 192.250515,112.425833 192.250515,112.4095 L192.250515,112.4095 L192.250515,112.385 L192.348515,112.336 C192.348515,112.303333 192.364848,112.270667 192.397515,112.238 C193.442848,110.898667 194.798515,108.808 196.464515,105.966 L196.464515,105.966 L196.807515,105.378 C197.003515,105.051333 196.930015,104.79 196.587015,104.594 C196.244015,104.398 195.974515,104.463333 195.778515,104.79 L195.778515,104.79 L195.435515,105.378 C193.802182,108.22 192.479182,110.278 191.466515,111.552 L191.466515,111.552 L191.417515,111.552 L191.368515,111.65 C190.421182,112.760667 189.800515,113.365 189.506515,113.463 C188.983848,113.495667 188.542848,113.299667 188.183515,112.875 C187.693515,112.254333 187.399515,111.225333 187.301515,109.788 C187.203515,108.350667 187.252515,106.897 187.448515,105.427 C187.644515,103.957 187.905848,102.585 188.232515,101.311 C188.395848,100.755667 188.355015,100.282 188.110015,99.89 C187.865015,99.498 187.513848,99.2366667 187.056515,99.106 C186.762515,99.0406667 186.460348,99.0243333 186.150015,99.057 C185.839682,99.0896667 185.545682,99.1958333 185.268015,99.3755 C184.990348,99.5551667 184.818848,99.792 184.753515,100.086 L184.753515,100.086 L184.704515,100.086 C184.639182,100.020667 184.573848,99.9716667 184.508515,99.939 C183.822515,99.3183333 182.842515,99.008 181.568515,99.008 C179.739182,99.008 177.934348,100.118667 176.154015,102.34 C174.373682,104.561333 173.483515,106.995 173.483515,109.641 C173.483515,111.633667 173.900015,113.103667 174.733015,114.051 C175.566015,114.998333 176.537848,115.472 177.648515,115.472 C179.608515,115.472 181.307182,114.149 182.744515,111.503 C183.071182,110.882333 183.381515,110.196333 183.675515,109.445 C183.838848,111.470333 184.279848,112.989333 184.998515,114.002 C185.717182,114.982 186.664515,115.472 187.840515,115.472 Z M178.726515,113.659 C178.367182,113.659 178.016015,113.3405 177.673015,112.7035 C177.330015,112.0665 177.158515,111.176333 177.158515,110.033 C177.158515,107.844333 177.771015,105.8435 178.996015,104.0305 C180.221015,102.2175 181.470515,101.131333 182.744515,100.772 C183.169182,100.674 183.512182,100.690333 183.773515,100.821 C183.904182,100.951667 184.018515,101.082333 184.116515,101.213 C184.181848,101.311 184.247182,101.425333 184.312515,101.556 C184.018515,102.928 183.822515,104.381667 183.724515,105.917 C183.691848,105.949667 183.667348,105.998667 183.651015,106.064 C183.634682,106.129333 183.626515,106.178333 183.626515,106.211 C182.940515,108.269 182.303515,109.820667 181.715515,110.866 L181.715515,110.866 L181.715515,110.915 C181.323515,111.666333 180.849848,112.3115 180.294515,112.8505 C179.739182,113.3895 179.216515,113.659 178.726515,113.659 Z M216.461485,119.588 C217.474152,119.588 218.568485,118.885667 219.744485,117.481 C219.777152,117.448333 219.793485,117.415667 219.793485,117.383 C220.054818,117.121667 220.299818,116.811333 220.528485,116.452 C220.561152,116.419333 220.577485,116.403 220.577485,116.403 C222.145485,114.181667 223.958485,110.686333 226.016485,105.917 C226.147152,105.623 226.228818,105.427 226.261485,105.329 C226.424818,104.969667 226.326818,104.7165 225.967485,104.5695 C225.608152,104.4225 225.346818,104.528667 225.183485,104.888 C225.183485,104.920667 225.167152,104.9615 225.134485,105.0105 C225.101818,105.0595 225.069152,105.133 225.036485,105.231 C225.003818,105.329 224.971152,105.410667 224.938485,105.476 C223.011152,109.951333 221.279818,113.299667 219.744485,115.521 C219.711818,115.553667 219.695485,115.57 219.695485,115.57 L219.695485,115.57 L219.695485,115.619 C219.401485,116.011 219.123818,116.370333 218.862485,116.697 C218.307152,117.317667 217.882485,117.628 217.588485,117.628 C217.425152,117.628 217.310818,117.579 217.245485,117.481 C217.082152,117.317667 216.984152,117.007333 216.951485,116.55 C216.918818,116.092667 216.951485,115.472 217.049485,114.688 C217.147485,113.904 217.245485,113.2425 217.343485,112.7035 C217.441485,112.1645 217.588485,111.388667 217.784485,110.376 C218.143818,108.481333 218.396985,107.035833 218.543985,106.0395 C218.690985,105.043167 218.731818,103.916167 218.666485,102.6585 C218.601152,101.400833 218.323485,100.478 217.833485,99.89 C217.343485,99.2693333 216.657485,98.959 215.775485,98.959 C213.129485,98.959 210.793818,102.029667 208.768485,108.171 C208.833818,103.924333 208.278485,101.147667 207.102485,99.841 C206.547152,99.2203333 205.893818,98.91 205.142485,98.91 C204.129818,98.91 203.182485,99.3673333 202.300485,100.282 C201.712485,100.935333 201.173485,101.817333 200.683485,102.928 C200.667152,102.960667 200.654902,102.985167 200.646735,103.0015 L200.634485,103.026 C200.601818,103.058667 200.585485,103.091333 200.585485,103.124 C199.670818,105.28 199.066485,107.811667 198.772485,110.719 C198.217152,107.615667 198.315152,104.479667 199.066485,101.311 C199.197152,100.755667 199.139985,100.282 198.894985,99.89 C198.649985,99.498 198.298818,99.2366667 197.841485,99.106 C197.384152,98.9753333 196.918652,98.9916667 196.444985,99.155 C195.971318,99.3183333 195.669152,99.6286667 195.538485,100.086 C194.950485,101.654 194.705485,103.908 194.803485,106.848 C194.901485,109.788 195.342485,112.074667 196.126485,113.708 C196.289818,114.067333 196.526652,114.385833 196.836985,114.6635 C197.147318,114.941167 197.473985,115.145333 197.816985,115.276 C198.159985,115.406667 198.494818,115.472 198.821485,115.472 C199.017485,115.472 199.197152,115.439333 199.360485,115.374 C199.523818,115.308667 199.654485,115.194333 199.752485,115.031 C199.850485,114.933 199.883152,114.802333 199.850485,114.639 L199.850485,114.639 L199.850485,114.443 C199.752485,112.711667 199.866818,110.833333 200.193485,108.808 C200.520152,106.782667 201.010152,105.018667 201.663485,103.516 C202.382152,102.111333 202.986485,101.409 203.476485,101.409 C203.639818,101.409 203.803152,101.474333 203.966485,101.605 C204.979152,102.683 205.354818,106.096667 205.093485,111.846 C205.060818,112.499333 205.101652,113.062833 205.215985,113.5365 C205.330318,114.010167 205.485485,114.345 205.681485,114.541 C205.877485,114.737 206.057152,114.875833 206.220485,114.9575 C206.383818,115.039167 206.563485,115.096333 206.759485,115.129 C207.151485,115.161667 207.510818,115.047333 207.837485,114.786 C208.164152,114.524667 208.360152,114.214333 208.425485,113.855 L208.425485,113.855 L208.425485,113.806 C209.307485,110.147333 210.295652,107.1665 211.389985,104.8635 C212.484318,102.5605 213.472485,101.409 214.354485,101.409 C214.485152,101.409 214.599485,101.458 214.697485,101.556 C214.795485,101.686667 214.877152,101.882667 214.942485,102.144 C215.007818,102.405333 215.040485,102.740167 215.040485,103.1485 C215.040485,103.556833 215.032318,103.940667 215.015985,104.3 C214.999652,104.659333 214.950652,105.149333 214.868985,105.77 C214.787318,106.390667 214.721985,106.880667 214.672985,107.24 C214.623985,107.599333 214.550485,108.105667 214.452485,108.759 C214.158485,110.588333 213.954318,111.984833 213.839985,112.9485 C213.725652,113.912167 213.717485,114.990167 213.815485,116.1825 C213.913485,117.374833 214.191152,118.2405 214.648485,118.7795 C215.105818,119.3185 215.710152,119.588 216.461485,119.588 Z M228.054955,96.8765 C228.659288,97.0235 229.206455,97.0316667 229.696455,96.901 C230.186455,96.7376667 230.472288,96.4845 230.553955,96.1415 C230.635622,95.7985 230.488622,95.4473333 230.112955,95.088 C229.737288,94.7286667 229.239122,94.4836667 228.618455,94.353 C227.997788,94.2223333 227.450622,94.2305 226.976955,94.3775 C226.503288,94.5245 226.225622,94.7695 226.143955,95.1125 C226.062288,95.4555 226.209288,95.7985 226.584955,96.1415 C226.960622,96.4845 227.450622,96.7295 228.054955,96.8765 Z M228.471455,115.472 C229.745455,115.472 231.199122,114.459333 232.832455,112.434 C232.865122,112.401333 232.881455,112.385 232.881455,112.385 L232.881455,112.385 L232.979455,112.336 C232.979455,112.303333 232.995788,112.270667 233.028455,112.238 C234.041122,110.931333 235.396788,108.840667 237.095455,105.966 L237.095455,105.966 L237.438455,105.378 C237.634455,105.051333 237.560955,104.79 237.217955,104.594 C236.874955,104.398 236.605455,104.463333 236.409455,104.79 L236.409455,104.79 L236.066455,105.378 C234.400455,108.22 233.061122,110.278 232.048455,111.552 L232.048455,111.552 L231.999455,111.65 C231.052122,112.760667 230.431455,113.365 230.137455,113.463 C229.582122,113.463 229.141122,113.267 228.814455,112.875 C228.324455,112.254333 228.030455,111.225333 227.932455,109.788 C227.834455,108.350667 227.883455,106.897 228.079455,105.427 C228.275455,103.957 228.536788,102.585 228.863455,101.311 C229.026788,100.755667 228.985955,100.282 228.740955,99.89 C228.495955,99.498 228.144788,99.2366667 227.687455,99.106 C227.230122,98.9753333 226.764622,98.9916667 226.290955,99.155 C225.817288,99.3183333 225.498788,99.6286667 225.335455,100.086 C225.008788,101.098667 224.731122,102.438 224.502455,104.104 C224.273788,105.77 224.224788,107.583 224.355455,109.543 C224.486122,111.503 224.910788,112.989333 225.629455,114.002 C226.348122,114.982 227.295455,115.472 228.471455,115.472 Z M240.481425,119.588 C240.971425,119.588 241.494092,119.473667 242.049425,119.245 L242.049425,119.245 L242.245425,119.147 C243.062092,118.755 243.927758,118.118 244.842425,117.236 C245.757092,116.354 246.704425,115.235167 247.684425,113.8795 C248.664425,112.523833 249.432092,111.413167 249.987425,110.5475 C250.542758,109.681833 251.261425,108.530333 252.143425,107.093 C252.666092,106.276333 253.025425,105.721 253.221425,105.427 C253.417425,105.100333 253.352092,104.830833 253.025425,104.6185 C252.698758,104.406167 252.421092,104.463333 252.192425,104.79 C252.029092,105.051333 251.686092,105.623 251.163425,106.505 C250.346758,107.844333 249.668925,108.9305 249.129925,109.7635 C248.590925,110.5965 247.847758,111.666333 246.900425,112.973 C245.953092,114.279667 245.054758,115.365833 244.205425,116.2315 C243.356092,117.097167 242.555758,117.709667 241.804425,118.069 C240.955092,118.036333 240.211925,117.3585 239.574925,116.0355 C238.937925,114.7125 238.594925,112.842333 238.545925,110.425 C238.496925,108.007667 239.060425,105.884333 240.236425,104.055 C241.412425,102.225667 242.637425,101.131333 243.911425,100.772 C244.368758,100.641333 244.728092,100.657667 244.989425,100.821 C245.120092,100.951667 245.234425,101.082333 245.332425,101.213 C245.397758,101.311 245.479425,101.441667 245.577425,101.605 C245.642758,101.670333 245.708092,101.752 245.773425,101.85 C246.002092,102.176667 246.271592,102.233833 246.581925,102.0215 C246.892258,101.809167 246.949425,101.539667 246.753425,101.213 C246.655425,101.082333 246.590092,101.000667 246.557425,100.968 C246.459425,100.772 246.361425,100.625 246.263425,100.527 C246.100092,100.265667 245.904092,100.053333 245.675425,99.89 C244.989425,99.302 244.025758,99.008 242.784425,99.008 C241.935092,99.008 241.028592,99.302 240.064925,99.89 C239.101258,100.478 238.227425,101.262 237.443425,102.242 C235.614092,104.561333 234.699425,107.223667 234.699425,110.229 C234.699425,112.058333 234.870925,113.626333 235.213925,114.933 C235.556925,116.239667 236.030592,117.2115 236.634925,117.8485 C237.239258,118.4855 237.851758,118.934667 238.472425,119.196 C239.093092,119.457333 239.762758,119.588 240.481425,119.588 Z M102.710332,203.6 C103.663665,203.6 104.519499,203.275 105.277832,202.625 C106.036165,201.975 106.653665,201.010833 107.130332,199.7325 C107.606999,198.454167 108.018665,197.078333 108.365332,195.605 C108.711999,194.131667 108.971999,192.311667 109.145332,190.145 C109.318665,187.978333 109.448665,185.941667 109.535332,184.035 C109.621999,182.128333 109.708665,179.896667 109.795332,177.34 L109.795332,177.34 L110.047532,177.0878 C110.146332,176.989 110.259865,176.875467 110.388132,176.7472 L110.817132,176.3182 C110.974865,176.160467 111.147332,175.988 111.334532,175.8008 L112.284629,174.850449 C113.980723,173.151816 115.295957,171.815 116.230332,170.84 C117.226999,169.8 118.440332,168.435 119.870332,166.745 C121.300332,165.055 122.448665,163.408333 123.315332,161.805 C124.181999,160.201667 124.831999,158.555 125.265332,156.865 C125.395332,156.388333 125.211165,156.085 124.712832,155.955 C124.214499,155.825 123.900332,155.998333 123.770332,156.475 C123.336999,158.078333 122.708665,159.638333 121.885332,161.155 C121.061999,162.671667 119.956999,164.253333 118.570332,165.9 C117.183665,167.546667 116.013665,168.868333 115.060332,169.865 C114.106999,170.861667 112.698665,172.27 110.835332,174.09 L110.835332,174.09 L110.347832,174.5775 C110.109499,174.815833 109.925332,174.978333 109.795332,175.065 C109.838665,173.981667 109.860332,173.18 109.860332,172.66 C110.726999,171.706667 111.506999,170.558333 112.200332,169.215 L112.200332,169.215 L112.200332,169.15 L112.200332,169.15 L112.460332,168.63 C113.023665,167.46 113.511165,166.203333 113.922832,164.86 C114.334499,163.516667 114.626999,162.2925 114.800332,161.1875 C114.973665,160.0825 115.060332,159.118333 115.060332,158.295 C115.060332,156.215 114.767832,154.600833 114.182832,153.4525 C113.597832,152.304167 112.752832,151.73 111.647832,151.73 C110.542832,151.73 109.600332,152.1525 108.820332,152.9975 C108.040332,153.8425 107.422832,154.893333 106.967832,156.15 C106.512832,157.406667 106.155332,159.020833 105.895332,160.9925 C105.635332,162.964167 105.461999,164.795 105.375332,166.485 C105.288665,168.175 105.245332,170.146667 105.245332,172.4 C104.811999,172.443333 104.356999,172.465 103.880332,172.465 C100.716999,172.465 98.2686655,170.905 96.5353321,167.785 C94.5419988,164.188333 93.5453321,158.641667 93.5453321,151.145 C93.5453321,143.951667 94.9319988,137.755 97.7053321,132.555 C98.8319988,130.475 100.023665,128.860833 101.280332,127.7125 C102.536999,126.564167 103.576999,125.99 104.400332,125.99 C105.526999,125.99 106.480332,126.64 107.260332,127.94 C108.040332,129.24 108.451999,130.713333 108.495332,132.36 L108.495332,132.36 L108.495332,132.685 C108.495332,136.065 107.065332,139.055 104.205332,141.655 C103.815332,142.001667 103.793665,142.359167 104.140332,142.7275 C104.486999,143.095833 104.855332,143.106667 105.245332,142.76 C108.451999,139.856667 110.055332,136.498333 110.055332,132.685 L110.055332,132.685 L110.055332,132.295 C110.011999,129.131667 109.318665,126.715833 107.975332,125.0475 C106.631999,123.379167 105.028665,122.545 103.165332,122.545 C101.475332,122.545 99.7528321,123.26 97.9978321,124.69 C96.2428321,126.12 94.6503321,128.091667 93.2203321,130.605 C90.0569988,136.368333 88.4753321,143.301667 88.4753321,151.405 C88.4753321,156.735 89.0278321,161.22 90.1328321,164.86 C91.2378321,168.5 92.8628321,171.251667 95.0078321,173.115 C97.1528321,174.978333 99.8069988,175.91 102.970332,175.91 C103.750332,175.91 104.508665,175.801667 105.245332,175.585 L105.245332,175.585 L105.245332,179.81 C102.905332,182.366667 101.085332,184.869167 99.7853321,187.3175 C98.4853321,189.765833 97.8353321,192.311667 97.8353321,194.955 C97.7053321,196.861667 97.9653321,198.486667 98.6153321,199.83 C99.4819988,202.343333 100.846999,203.6 102.710332,203.6 Z M109.860332,169.865 C109.946999,164.448333 110.098665,160.613333 110.315332,158.36 C110.445332,156.886667 110.629499,155.7275 110.867832,154.8825 C111.106165,154.0375 111.279499,153.560833 111.387832,153.4525 C111.496165,153.344167 111.593665,153.29 111.680332,153.29 C112.286999,153.29 112.741999,153.7775 113.045332,154.7525 C113.348665,155.7275 113.500332,156.908333 113.500332,158.295 C113.500332,159.681667 113.251165,161.371667 112.752832,163.365 C112.254499,165.358333 111.528665,167.178333 110.575332,168.825 C110.358665,169.215 110.120332,169.561667 109.860332,169.865 Z M101.995332,200.545 C101.388665,200.545 100.890332,200.35 100.500332,199.96 C100.283665,199.7 100.110332,199.396667 99.9803321,199.05 C99.5903321,197.836667 99.3953321,196.471667 99.3953321,194.955 C99.3953321,190.968333 101.345332,186.7 105.245332,182.15 C105.201999,186.613333 105.028665,190.188333 104.725332,192.875 C104.205332,197.988333 103.295332,200.545 101.995332,200.545 Z M127.871925,170.385 C128.131925,170.385 128.370258,170.341667 128.586925,170.255 C128.976925,170.081667 129.193592,169.778333 129.236925,169.345 L129.236925,169.345 L129.236925,169.28 C129.756925,164.383333 130.645258,160.245 131.901925,156.865 L131.901925,156.865 L131.901925,156.8 C133.331925,153.376667 134.653592,151.665 135.866925,151.665 C136.300258,151.665 136.646925,151.795 136.906925,152.055 C137.166925,152.315 137.491925,152.791667 137.881925,153.485 C138.141925,153.961667 138.347758,154.319167 138.499425,154.5575 C138.651092,154.795833 138.911092,155.120833 139.279425,155.5325 C139.647758,155.944167 140.016092,156.258333 140.384425,156.475 C140.752758,156.691667 141.240258,156.886667 141.846925,157.06 C142.453592,157.233333 143.103592,157.32 143.796925,157.32 L143.796925,157.32 L149.841925,157.32 C150.058592,157.32 150.242758,157.244167 150.394425,157.0925 C150.546092,156.940833 150.621925,156.756667 150.621925,156.54 C150.621925,156.323333 150.546092,156.139167 150.394425,155.9875 C150.242758,155.835833 150.058592,155.76 149.841925,155.76 L149.841925,155.76 L146.981925,155.76 C146.505258,155.76 146.082758,155.565 145.714425,155.175 C145.346092,154.785 144.880258,154.135 144.316925,153.225 C143.926925,152.488333 143.591092,151.925 143.309425,151.535 C143.027758,151.145 142.616092,150.668333 142.074425,150.105 C141.532758,149.541667 140.904425,149.13 140.189425,148.87 C139.474425,148.61 138.661925,148.48 137.751925,148.48 C136.451925,148.48 135.173592,149.13 133.916925,150.43 C132.660258,151.73 131.533592,153.636667 130.536925,156.15 C130.536925,156.15 130.526092,156.171667 130.504425,156.215 C130.482758,156.258333 130.471925,156.290833 130.471925,156.3125 L130.471925,156.3125 L130.471925,156.345 C129.475258,158.945 128.695258,162.021667 128.131925,165.575 C127.005258,161.068333 127.026925,156.388333 128.196925,151.535 C128.326925,151.015 128.326925,150.549167 128.196925,150.1375 C128.066925,149.725833 127.861092,149.400833 127.579425,149.1625 C127.297758,148.924167 126.961925,148.74 126.571925,148.61 C125.965258,148.436667 125.347758,148.469167 124.719425,148.7075 C124.091092,148.945833 123.690258,149.346667 123.516925,149.91 C122.736925,152.033333 122.411925,155.034167 122.541925,158.9125 C122.671925,162.790833 123.256925,165.835 124.296925,168.045 C124.643592,168.695 125.163592,169.2475 125.856925,169.7025 C126.550258,170.1575 127.221925,170.385 127.871925,170.385 Z M154.593518,170.32 C155.373518,170.32 156.175185,170.168333 156.998518,169.865 C157.085185,169.821667 157.171851,169.778333 157.258518,169.735 C158.341851,169.258333 159.436018,168.554167 160.541018,167.6225 C161.646018,166.690833 162.761851,165.51 163.888518,164.08 C165.015185,162.65 165.903518,161.490833 166.553518,160.6025 C167.203518,159.714167 168.026851,158.511667 169.023518,156.995 C169.283518,156.561667 169.196851,156.204167 168.763518,155.9225 C168.330185,155.640833 167.983518,155.716667 167.723518,156.15 C166.986851,157.233333 166.391018,158.1 165.936018,158.75 C165.481018,159.4 164.809351,160.320833 163.921018,161.5125 C163.032685,162.704167 162.241851,163.679167 161.548518,164.4375 C160.855185,165.195833 160.053518,165.954167 159.143518,166.7125 C158.233518,167.470833 157.388518,168.023333 156.608518,168.37 C155.481851,168.586667 154.506851,168.37 153.683518,167.72 C152.556851,166.853333 151.993518,165.206667 151.993518,162.78 C151.993518,162 152.015185,161.263333 152.058518,160.57 C153.965185,159.66 155.709351,158.435833 157.291018,156.8975 C158.872685,155.359167 159.685185,153.701667 159.728518,151.925 L159.728518,151.925 L159.728518,151.86 C159.728518,150.733333 159.295185,149.866667 158.428518,149.26 C157.691851,148.74 156.781851,148.48 155.698518,148.48 C153.358518,148.48 151.311018,149.541667 149.556018,151.665 C147.801018,153.788333 146.923518,156.713333 146.923518,160.44 C146.923518,163.56 147.736018,165.986667 149.361018,167.72 C150.986018,169.453333 152.730185,170.32 154.593518,170.32 Z M152.318518,158.685 C152.968518,155.088333 154.203518,152.661667 156.023518,151.405 C156.673518,150.971667 157.193518,150.82 157.583518,150.95 C157.973518,151.08 158.168518,151.405 158.168518,151.925 C158.125185,153.138333 157.529351,154.351667 156.381018,155.565 C155.232685,156.778333 153.878518,157.818333 152.318518,158.685 Z M173.060111,170.32 C173.840111,170.32 174.641777,170.168333 175.465111,169.865 C175.551777,169.821667 175.638444,169.778333 175.725111,169.735 C176.808444,169.258333 177.902611,168.554167 179.007611,167.6225 C180.112611,166.690833 181.228444,165.51 182.355111,164.08 C183.481777,162.65 184.370111,161.490833 185.020111,160.6025 C185.670111,159.714167 186.493444,158.511667 187.490111,156.995 C187.750111,156.561667 187.663444,156.204167 187.230111,155.9225 C186.796777,155.640833 186.450111,155.716667 186.190111,156.15 C185.453444,157.233333 184.857611,158.1 184.402611,158.75 C183.947611,159.4 183.275944,160.320833 182.387611,161.5125 C181.499277,162.704167 180.708444,163.679167 180.015111,164.4375 C179.321777,165.195833 178.520111,165.954167 177.610111,166.7125 C176.700111,167.470833 175.855111,168.023333 175.075111,168.37 C173.948444,168.586667 172.973444,168.37 172.150111,167.72 C171.023444,166.853333 170.460111,165.206667 170.460111,162.78 C170.460111,162 170.481777,161.263333 170.525111,160.57 C172.431777,159.66 174.175944,158.435833 175.757611,156.8975 C177.339277,155.359167 178.151777,153.701667 178.195111,151.925 L178.195111,151.925 L178.195111,151.86 C178.195111,150.733333 177.761777,149.866667 176.895111,149.26 C176.158444,148.74 175.248444,148.48 174.165111,148.48 C171.825111,148.48 169.777611,149.541667 168.022611,151.665 C166.267611,153.788333 165.390111,156.713333 165.390111,160.44 C165.390111,163.56 166.202611,165.986667 167.827611,167.72 C169.452611,169.453333 171.196777,170.32 173.060111,170.32 Z M170.785111,158.685 C171.435111,155.088333 172.670111,152.661667 174.490111,151.405 C175.140111,150.971667 175.660111,150.82 176.050111,150.95 C176.440111,151.08 176.635111,151.405 176.635111,151.925 C176.591777,153.138333 175.995944,154.351667 174.847611,155.565 C173.699277,156.778333 172.345111,157.818333 170.785111,158.685 Z M193.866704,175.845 C195.51337,175.845 196.965037,174.046667 198.221704,170.45 L198.221704,170.45 L198.286704,170.45 L198.286704,170.385 C198.63337,169.345 199.175037,167.568333 199.911704,165.055 C200.995037,161.198333 201.905037,158.468333 202.641704,156.865 C202.815037,156.388333 202.674204,156.0525 202.219204,155.8575 C201.764204,155.6625 201.42837,155.803333 201.211704,156.28 C200.475037,157.926667 199.54337,160.721667 198.416704,164.665 C197.680037,167.178333 197.116704,168.955 196.726704,169.995 C196.03337,171.858333 195.470037,172.79 195.036704,172.79 C194.950037,172.79 194.83087,172.746667 194.679204,172.66 C194.527537,172.573333 194.354204,172.4325 194.159204,172.2375 C193.964204,172.0425 193.747537,171.793333 193.509204,171.49 C193.27087,171.186667 193.032537,170.785833 192.794204,170.2875 C192.55587,169.789167 192.317537,169.225833 192.079204,168.5975 C191.84087,167.969167 191.624204,167.210833 191.429204,166.3225 C191.234204,165.434167 191.050037,164.47 190.876704,163.43 C190.70337,162.39 190.57337,161.1875 190.486704,159.8225 C190.400037,158.4575 190.356704,156.995 190.356704,155.435 C190.356704,150.408333 190.790037,145.706667 191.656704,141.33 C194.950037,141.07 199.34837,140.095 204.851704,138.405 C207.01837,137.711667 208.74087,137.191667 210.019204,136.845 C211.297537,136.498333 213.009204,136.151667 215.154204,135.805 C217.299204,135.458333 219.390037,135.285 221.426704,135.285 C223.59337,135.285 225.70587,135.675 227.764204,136.455 C229.822537,137.235 231.176704,138.296667 231.826704,139.64 C232.04337,140.116667 232.390037,140.235833 232.866704,139.9975 C233.34337,139.759167 233.47337,139.423333 233.256704,138.99 C232.476704,137.343333 230.927537,136.054167 228.609204,135.1225 C226.29087,134.190833 223.896704,133.725 221.426704,133.725 C219.30337,133.725 217.136704,133.909167 214.926704,134.2775 C212.716704,134.645833 210.972537,135.003333 209.694204,135.35 C208.41587,135.696667 206.650037,136.216667 204.396704,136.91 C199.15337,138.556667 195.015037,139.51 191.981704,139.77 C192.891704,135.826667 194.34337,131.796667 196.336704,127.68 C196.596704,127.116667 196.791704,126.726667 196.921704,126.51 C197.311704,125.47 197.441704,124.6575 197.311704,124.0725 C197.181704,123.4875 196.87837,123.065 196.401704,122.805 C195.881704,122.501667 195.31837,122.469167 194.711704,122.7075 C194.105037,122.945833 193.606704,123.39 193.216704,124.04 C190.616704,128.156667 188.62337,133.443333 187.236704,139.9 C184.20337,139.64 181.690037,138.383333 179.696704,136.13 C179.350037,135.74 178.981704,135.718333 178.591704,136.065 C178.201704,136.411667 178.180037,136.78 178.526704,137.17 C180.736704,139.683333 183.55337,141.091667 186.976704,141.395 C186.066704,146.031667 185.611704,150.928333 185.611704,156.085 C185.611704,162.195 186.435037,167.015833 188.081704,170.5475 C189.72837,174.079167 191.656704,175.845 193.866704,175.845 Z M205.020796,145.6525 C205.822463,145.8475 206.548296,145.858333 207.198296,145.685 C207.848296,145.468333 208.227463,145.1325 208.335796,144.6775 C208.44413,144.2225 208.24913,143.756667 207.750796,143.28 C207.252463,142.803333 206.59163,142.478333 205.768296,142.305 C204.944963,142.131667 204.21913,142.1425 203.590796,142.3375 C202.962463,142.5325 202.59413,142.8575 202.485796,143.3125 C202.377463,143.7675 202.572463,144.2225 203.070796,144.6775 C203.56913,145.1325 204.21913,145.4575 205.020796,145.6525 Z M205.573296,170.32 C207.263296,170.32 209.19163,168.976667 211.358296,166.29 C211.40163,166.246667 211.423296,166.225 211.423296,166.225 L211.423296,166.225 L211.553296,166.16 C211.553296,166.116667 211.574963,166.073333 211.618296,166.03 C212.96163,164.296667 214.759963,161.523333 217.013296,157.71 L217.013296,157.71 L217.468296,156.93 C217.728296,156.496667 217.630796,156.15 217.175796,155.89 C216.720796,155.63 216.363296,155.716667 216.103296,156.15 L216.103296,156.15 L215.648296,156.93 C213.438296,160.7 211.66163,163.43 210.318296,165.12 L210.318296,165.12 L210.253296,165.25 C208.99663,166.723333 208.173296,167.525 207.783296,167.655 C207.04663,167.655 206.46163,167.395 206.028296,166.875 C205.378296,166.051667 204.988296,164.686667 204.858296,162.78 C204.728296,160.873333 204.793296,158.945 205.053296,156.995 C205.313296,155.045 205.659963,153.225 206.093296,151.535 C206.309963,150.798333 206.255796,150.17 205.930796,149.65 C205.605796,149.13 205.139963,148.783333 204.533296,148.61 C203.92663,148.436667 203.30913,148.458333 202.680796,148.675 C202.052463,148.891667 201.629963,149.303333 201.413296,149.91 C200.979963,151.253333 200.61163,153.03 200.308296,155.24 C200.004963,157.45 199.939963,159.855 200.113296,162.455 C200.28663,165.055 200.849963,167.026667 201.803296,168.37 C202.75663,169.67 204.013296,170.32 205.573296,170.32 Z M232.619889,175.78 C233.963223,175.78 235.414889,174.848333 236.974889,172.985 C237.018223,172.898333 237.039889,172.855 237.039889,172.855 C237.386556,172.508333 237.711556,172.096667 238.014889,171.62 C238.014889,171.576667 238.036556,171.533333 238.079889,171.49 C240.159889,168.543333 242.564889,163.928333 245.294889,157.645 C245.468223,157.255 245.576556,156.995 245.619889,156.865 C245.836556,156.388333 245.706556,156.041667 245.229889,155.825 C244.753223,155.608333 244.406556,155.738333 244.189889,156.215 C244.103223,156.431667 243.994889,156.713333 243.864889,157.06 C241.308223,162.996667 239.011556,167.438333 236.974889,170.385 C236.931556,170.428333 236.909889,170.45 236.909889,170.45 L236.909889,170.45 L236.909889,170.515 C236.519889,171.035 236.151556,171.511667 235.804889,171.945 C235.068223,172.768333 234.504889,173.18 234.114889,173.18 C233.898223,173.18 233.746556,173.115 233.659889,172.985 C233.399889,172.725 233.237389,172.291667 233.172389,171.685 C233.107389,171.078333 233.118223,170.255 233.204889,169.215 C233.291556,168.175 233.378223,167.2975 233.464889,166.5825 C233.551556,165.8675 233.703223,164.86 233.919889,163.56 C234.266556,161.046667 234.515723,159.129167 234.667389,157.8075 C234.819056,156.485833 234.819056,154.990833 234.667389,153.3225 C234.515723,151.654167 234.114889,150.43 233.464889,149.65 C232.771556,148.826667 231.839889,148.415 230.669889,148.415 C228.503223,148.415 226.531556,150.04 224.754889,153.29 C224.711556,153.333333 224.689889,153.376667 224.689889,153.42 C224.213223,154.243333 223.779889,155.196667 223.389889,156.28 C223.389889,156.323333 223.368223,156.345 223.324889,156.345 C222.371556,158.945 221.613223,162.021667 221.049889,165.575 C219.923223,161.068333 219.944889,156.388333 221.114889,151.535 C221.288223,150.798333 221.212389,150.17 220.887389,149.65 C220.562389,149.13 220.096556,148.783333 219.489889,148.61 C218.883223,148.436667 218.265723,148.458333 217.637389,148.675 C217.009056,148.891667 216.608223,149.303333 216.434889,149.91 C215.654889,151.99 215.329889,154.98 215.459889,158.88 C215.589889,162.78 216.174889,165.813333 217.214889,167.98 C217.561556,168.673333 218.081556,169.236667 218.774889,169.67 C219.468223,170.103333 220.139889,170.32 220.789889,170.32 C221.049889,170.32 221.288223,170.276667 221.504889,170.19 C221.938223,170.016667 222.154889,169.691667 222.154889,169.215 C222.761556,163.278333 223.909889,158.511667 225.599889,154.915 C225.686556,154.828333 225.751556,154.72 225.794889,154.59 C226.791556,152.64 227.788223,151.665 228.784889,151.665 C229.001556,151.665 229.153223,151.73 229.239889,151.86 C229.413223,152.033333 229.554056,152.293333 229.662389,152.64 C229.770723,152.986667 229.824889,153.441667 229.824889,154.005 L229.824889,154.005 L229.824889,155.565 C229.824889,156.041667 229.792389,156.680833 229.727389,157.4825 C229.662389,158.284167 229.608223,158.923333 229.564889,159.4 C229.521556,159.876667 229.456556,160.57 229.369889,161.48 C228.936556,164.036667 228.730723,166.636667 228.752389,169.28 C228.774056,171.923333 229.239889,173.743333 230.149889,174.74 C230.799889,175.433333 231.623223,175.78 232.619889,175.78 Z M248.941482,203.665 C250.328149,203.665 251.584815,203.08 252.711482,201.91 C254.314815,200.306667 255.679815,197.435833 256.806482,193.2975 C257.933149,189.159167 258.756482,184.9125 259.276482,180.5575 C259.796482,176.2025 260.164815,171.49 260.381482,166.42 C263.414815,163.56 266.794815,160.678333 270.521482,157.775 C270.911482,157.471667 271.171482,157.276667 271.301482,157.19 C271.734815,156.843333 271.788982,156.475 271.463982,156.085 C271.138982,155.695 270.759815,155.651667 270.326482,155.955 C270.239815,156.041667 270.001482,156.236667 269.611482,156.54 C266.274815,159.096667 263.241482,161.653333 260.511482,164.21 C260.684815,159.443333 260.728149,155.175 260.641482,151.405 C260.598149,150.365 260.273149,149.585 259.666482,149.065 C259.146482,148.631667 258.539815,148.458333 257.846482,148.545 C256.893149,148.675 256.243149,149.216667 255.896482,150.17 C255.073149,149.433333 253.968149,149.065 252.581482,149.065 C250.154815,149.065 247.836482,150.440833 245.626482,153.1925 C243.416482,155.944167 242.311482,159.075 242.311482,162.585 C242.311482,165.228333 242.863982,167.178333 243.968982,168.435 C245.073982,169.691667 246.363149,170.32 247.836482,170.32 C250.393149,170.32 252.603149,168.63 254.466482,165.25 C254.509815,165.163333 254.553149,165.098333 254.596482,165.055 C254.986482,164.275 255.376482,163.408333 255.766482,162.455 C255.723149,164.708333 255.658149,166.918333 255.571482,169.085 C247.078149,178.185 242.831482,186.635 242.831482,194.435 C242.831482,196.341667 243.037315,197.945 243.448982,199.245 C243.860649,200.545 244.402315,201.498333 245.073982,202.105 C245.745649,202.711667 246.384815,203.123333 246.991482,203.34 C247.598149,203.556667 248.248149,203.665 248.941482,203.665 Z M249.266482,167.915 C248.789815,167.915 248.323982,167.4925 247.868982,166.6475 C247.413982,165.8025 247.186482,164.621667 247.186482,163.105 C247.186482,160.331667 247.836482,158.056667 249.136482,156.28 C250.436482,154.503333 251.823149,153.42 253.296482,153.03 C254.466482,152.726667 255.311482,152.921667 255.831482,153.615 L255.831482,153.615 L255.831482,157.71 C255.831482,157.71 255.820649,157.753333 255.798982,157.84 C255.777315,157.926667 255.766482,157.991667 255.766482,158.035 C254.813149,160.765 253.968149,162.823333 253.231482,164.21 L253.231482,164.21 L253.231482,164.275 C252.884815,164.925 252.494815,165.51 252.061482,166.03 C251.628149,166.55 251.162315,166.994167 250.663982,167.3625 C250.165649,167.730833 249.699815,167.915 249.266482,167.915 Z M247.186482,201 C246.623149,201 246.070649,200.5125 245.528982,199.5375 C244.987315,198.5625 244.629815,197.425 244.456482,196.125 C244.413149,195.605 244.391482,195.041667 244.391482,194.435 C244.391482,187.415 248.074815,179.788333 255.441482,171.555 C254.488149,187.111667 252.451482,196.558333 249.331482,199.895 C248.638149,200.631667 247.923149,201 247.186482,201 Z M275.078075,175.78 C276.378075,175.78 277.526408,175.530833 278.523075,175.0325 C279.519742,174.534167 280.267242,173.905833 280.765575,173.1475 C281.263908,172.389167 281.621408,171.630833 281.838075,170.8725 C282.054742,170.114167 282.163075,169.388333 282.163075,168.695 C282.163075,167.308333 281.729742,165.965 280.863075,164.665 C285.369742,162.195 289.074742,159.703333 291.978075,157.19 C292.368075,156.843333 292.389742,156.475 292.043075,156.085 C291.696408,155.695 291.328075,155.673333 290.938075,156.02 C288.121408,158.446667 284.438075,160.916667 279.888075,163.43 C279.411408,162.91 278.653075,162.195 277.613075,161.285 C276.746408,160.548333 276.107242,159.963333 275.695575,159.53 C275.283908,159.096667 274.872242,158.5225 274.460575,157.8075 C274.048908,157.0925 273.843075,156.366667 273.843075,155.63 C273.843075,154.676667 274.308908,153.7125 275.240575,152.7375 C276.172242,151.7625 277.504742,151.275 279.238075,151.275 C280.408075,151.275 281.643075,151.795 282.943075,152.835 L282.943075,152.835 L283.008075,152.835 L283.008075,152.835 L283.008075,152.9 L283.008075,152.9 L283.138075,152.9 C283.138075,152.943333 283.159742,152.965 283.203075,152.965 L283.203075,152.965 L283.658075,152.965 L283.658075,152.965 L283.723075,152.9 L283.723075,152.9 L283.853075,152.9 L283.983075,152.77 L283.983075,152.77 L283.983075,152.705 L284.048075,152.705 L284.048075,152.705 L284.048075,152.64 L284.048075,152.64 L284.113075,152.575 L284.113075,152.575 L284.113075,152.51 C284.156408,152.466667 284.178075,152.434167 284.178075,152.4125 L284.178075,152.4125 L284.178075,151.99 C284.134742,151.946667 284.113075,151.903333 284.113075,151.86 C283.549742,150.82 282.661408,150.0075 281.448075,149.4225 C280.234742,148.8375 278.826408,148.545 277.223075,148.545 C274.796408,148.545 272.792242,149.335833 271.210575,150.9175 C269.628908,152.499167 268.838075,154.135 268.838075,155.825 C268.838075,156.821667 268.968075,157.7425 269.228075,158.5875 C269.488075,159.4325 269.910575,160.201667 270.495575,160.895 C271.080575,161.588333 271.589742,162.119167 272.023075,162.4875 C272.456408,162.855833 273.063075,163.343333 273.843075,163.95 C274.839742,164.686667 275.554742,165.271667 275.988075,165.705 C274.428075,166.658333 273.258075,167.600833 272.478075,168.5325 C271.698075,169.464167 271.308075,170.536667 271.308075,171.75 C271.308075,172.833333 271.654742,173.775833 272.348075,174.5775 C273.041408,175.379167 273.951408,175.78 275.078075,175.78 Z M275.273075,174.22 L275.078075,174.22 C274.384742,174.22 273.843075,173.970833 273.453075,173.4725 C273.063075,172.974167 272.868075,172.4 272.868075,171.75 C272.868075,170.84 273.203908,170.005833 273.875575,169.2475 C274.547242,168.489167 275.598075,167.698333 277.028075,166.875 C277.851408,168.001667 278.263075,169.323333 278.263075,170.84 C278.263075,171.36 278.143908,171.869167 277.905575,172.3675 C277.667242,172.865833 277.320575,173.288333 276.865575,173.635 C276.410575,173.981667 275.879742,174.176667 275.273075,174.22 L275.273075,174.22 Z" id="IslamicGreetings"></path>
        </g>
    </g>
</svg>