<?xml version="1.0" encoding="UTF-8"?>
<svg width="226px" height="55px" viewBox="0 0 226 55" version="1.1" xmlns="http://www.w3.org/2000/svg" xmlns:xlink="http://www.w3.org/1999/xlink">
    <title>Logo</title>
    <defs>
        <linearGradient x1="79.3622026%" y1="47.6341324%" x2="50%" y2="57.9132343%" id="linearGradient-1">
            <stop stop-color="#FFFFFF" offset="0%"></stop>
            <stop stop-color="#FFFFFF" offset="100%"></stop>
        </linearGradient>
        <linearGradient x1="66.6243399%" y1="35.0511968%" x2="50%" y2="100%" id="linearGradient-2">
            <stop stop-color="#FFFFFF" offset="0%"></stop>
            <stop stop-color="#FFFFFF" offset="100%"></stop>
        </linearGradient>
    </defs>
    <g id="Light-Theme" stroke="none" stroke-width="1" fill="none" fill-rule="evenodd">
        <g id="Splash-Page" transform="translate(-72.000000, -219.000000)">
            <g id="Logo" transform="translate(72.603562, 219.697485)">
                <path d="M4.15262232,38.4048417 C7.54784812,38.4048417 9.92450617,35.4666655 11.2825965,29.5903132 C11.9877588,26.4040243 12.3403399,22.9826814 12.3403399,19.3262844 C12.3403399,19.1695817 12.3533985,18.9737033 12.3795156,18.7386492 C12.4317498,12.47054 11.7265876,8.60520603 10.2640288,7.14264723 C9.76780344,6.6203048 9.18016821,6.35913358 8.50112305,6.35913358 C6.72515879,6.35913358 5.38012703,7.20794003 4.46602778,8.90555293 C3.99591959,9.79353506 3.69557269,10.864337 3.56498709,12.1179589 C3.56498709,12.1701931 3.55192852,12.261603 3.5258114,12.3921886 C3.47357716,13.2540537 3.50622356,14.1420358 3.62375061,15.056135 C3.74127766,15.9702343 3.93062679,16.8190407 4.191798,17.6025544 C4.45296922,18.386068 4.77943324,19.0520546 5.17119006,19.6005142 C5.35400991,19.8616854 5.56947616,19.9073904 5.81758882,19.7376291 C6.06570147,19.5678678 6.11140643,19.3524015 5.9547037,19.0912303 C5.61518112,18.6211221 5.32789279,18.0530747 5.09283869,17.3870881 C4.8577846,16.7211015 4.68802331,16.00941 4.58355482,15.2520135 C4.47908634,14.4946169 4.4268521,13.7372204 4.4268521,12.9798239 C4.45296922,12.9537068 4.46602778,12.9145311 4.46602778,12.8622968 L4.46602778,12.5097157 C4.46602778,12.353013 4.47908634,12.1832517 4.50520346,12.0004318 L4.50520346,11.9612561 C4.66190619,10.9426884 5.00142877,10.0873527 5.5237712,9.39524896 C6.04611363,8.70314524 6.63374886,8.35709338 7.2866769,8.35709338 C8.12242479,8.35709338 8.72311858,9.49318816 9.08875828,11.7653777 C9.37604662,13.4107564 9.51969079,15.8265901 9.51969079,19.0128789 C9.51969079,20.7627261 9.42828086,22.577866 9.24546101,24.4582988 C9.06264116,26.3387315 8.76882355,28.2518107 8.36400816,30.1975362 C7.95919278,32.1432618 7.36502826,33.7429355 6.58151462,34.9965573 C5.79800097,36.2501791 4.87084316,36.8769901 3.80004118,36.8769901 C3.01652753,36.8769901 2.3635995,36.641936 1.84125707,36.1718278 C1.31891464,35.7017196 1.01856774,35.0879672 0.940216374,34.3305707 L0.940216374,34.0563409 C0.940216374,33.9779896 0.927157813,33.9126968 0.901040692,33.8604625 C0.87492357,33.8082283 0.842277169,33.7625233 0.803101486,33.7233476 C0.763925804,33.684172 0.711691561,33.6515256 0.646398757,33.6254084 C0.581105953,33.5992913 0.52234243,33.5862327 0.470108187,33.5862327 C0.33952258,33.5862327 0.228524813,33.6319377 0.137114888,33.7233476 C0.0457049626,33.8147576 0,33.9257553 0,34.0563409 L0,34.4480978 C0.0261171215,34.500332 0.0391756823,34.5656248 0.0391756823,34.6439762 C0.16976129,35.6625439 0.587635234,36.5374675 1.29279751,37.2687469 C2.07631116,38.0261434 3.01652753,38.4048417 4.11344664,38.4048417 L4.15262232,38.4048417 Z M19.7485174,38.4048417 C20.532031,38.4048417 21.2241348,38.2546682 21.8248286,37.9543213 C22.4255223,37.6539744 22.8760427,37.2752762 23.1763896,36.8182265 C23.4767365,36.3611769 23.6922027,35.9041273 23.8227883,35.4470777 C23.953374,34.990028 24.0186668,34.5525662 24.0186668,34.1346923 C24.0186668,33.2989444 23.7574955,32.4893136 23.2351531,31.7058 C25.9513337,30.2171241 28.1843476,28.7153896 29.9341948,27.2005965 C30.1692489,26.9916596 30.1823074,26.769664 29.9733705,26.5346099 C29.7644335,26.2995558 29.542438,26.2864973 29.3073839,26.4954343 C27.609771,27.9579931 25.3898156,29.446669 22.6475179,30.961462 C22.3602295,30.6480566 21.9031799,30.2171241 21.276369,29.6686645 C20.7540266,29.2246735 20.368799,28.8720923 20.1206864,28.6109211 C19.8725737,28.3497499 19.6244611,28.003698 19.3763484,27.5727655 C19.1282358,27.141833 19.0041794,26.7043712 19.0041794,26.2603802 C19.0041794,25.6858035 19.2849385,25.1046975 19.8464566,24.5170623 C20.4079747,23.9294271 21.2110762,23.6356095 22.2557611,23.6356095 C22.9609233,23.6356095 23.7052613,23.9490149 24.4887749,24.5758258 L24.5279506,24.5758258 L24.5279506,24.6150015 L24.606302,24.6150015 C24.606302,24.6411186 24.6193606,24.6541772 24.6454777,24.6541772 L24.9197074,24.6541772 C24.9197074,24.6541772 24.932766,24.6411186 24.9588831,24.6150015 L25.0372345,24.6150015 L25.0764102,24.5758258 C25.0764102,24.5758258 25.0894687,24.5627673 25.1155859,24.5366501 L25.1155859,24.4974745 L25.1547615,24.4974745 L25.1547615,24.4582988 C25.1808787,24.4321817 25.1939372,24.4191231 25.1939372,24.4191231 L25.1939372,24.3799474 C25.2200543,24.3538303 25.2331129,24.3342425 25.2331129,24.3211839 L25.2331129,24.066542 C25.2069958,24.0404248 25.1939372,24.0143077 25.1939372,23.9881906 C24.8544146,23.3613797 24.3190137,22.8716837 23.5877343,22.5191025 C22.8564549,22.1665214 22.0076484,21.9902308 21.0413149,21.9902308 C19.5787561,21.9902308 18.3708392,22.4668683 17.4175643,23.4201432 C16.4642894,24.3734181 15.9876519,25.3593395 15.9876519,26.3779072 C15.9876519,26.978601 16.0660033,27.5335898 16.222706,28.0428737 C16.3794087,28.5521576 16.6340507,29.0157365 16.9866318,29.4336104 C17.3392129,29.8514844 17.6460891,30.1714191 17.9072603,30.3934146 C18.1684315,30.6154102 18.5340712,30.9092278 19.0041794,31.2748675 C19.6048732,31.7188586 20.0358057,32.0714397 20.2969769,32.3326109 C19.3567606,32.9071876 18.6515983,33.475235 18.1814901,34.0367531 C17.7113819,34.5982712 17.4763278,35.24467 17.4763278,35.9759494 C17.4763278,36.6288774 17.6852648,37.1969248 18.1031387,37.6800915 C18.5210127,38.1632583 19.0694722,38.4048417 19.7485174,38.4048417 Z M19.7485174,37.4646253 C19.3306434,37.4646253 19.0041794,37.3144518 18.7691253,37.0141049 C18.5340712,36.713758 18.4165442,36.3677062 18.4165442,35.9759494 C18.4165442,35.4274898 18.6189519,34.9247352 19.0237673,34.4676856 C19.4285827,34.010636 20.0619228,33.5339985 20.9237879,33.0377732 C21.4200132,33.7168184 21.6681258,34.5133906 21.6681258,35.4274898 C21.6681258,35.7408953 21.5963037,36.0477715 21.4526596,36.3481183 C21.3090154,36.6484652 21.1000784,36.9031072 20.8258487,37.1120442 C20.5516189,37.3209811 20.2316841,37.4385082 19.8660444,37.4646253 L19.7485174,37.4646253 Z M32.5237633,38.4048417 C33.307277,38.4048417 34.1952591,37.7910893 35.1877097,36.5635846 L35.1877097,36.5244089 C35.3182953,36.3938233 35.4749981,36.2110035 35.6578179,35.9759494 C35.7100522,35.897598 35.7492278,35.8323052 35.775345,35.780071 C36.0887504,35.3099628 36.428273,34.7745618 36.7939127,34.173868 C37.8908318,32.3195524 39.0922194,29.9298357 40.3980755,27.0047181 C40.5286611,26.7174298 40.4503097,26.5150221 40.1630214,26.3974951 C39.875733,26.279968 39.6667961,26.3648487 39.5362105,26.652137 C37.5251921,31.170399 35.8014621,34.3175122 34.3650204,36.0934764 C34.1299663,36.3024134 33.9210293,36.4068819 33.7382095,36.4068819 C33.2158671,36.4068819 32.7588174,36.0412422 32.3670606,35.3099628 C31.6096641,33.8212868 31.2309658,31.170399 31.2309658,27.3572993 L31.2309658,26.2212045 C32.7457589,24.0273663 34.3258447,21.4287127 35.9712234,18.4252437 C37.616602,15.4217747 38.7004626,12.8492383 39.222805,10.7076343 L39.222805,10.6684586 C39.222805,10.6423415 39.2358636,10.6031658 39.2619807,10.5509316 L39.2619807,10.3942289 C39.3403321,10.1330576 39.3925663,9.88494498 39.4186834,9.64989089 L39.4186834,9.61071521 C39.5231519,8.67049883 39.4448005,7.92616087 39.1836293,7.37770132 C38.8179896,6.67253904 38.1650616,6.3199579 37.2248452,6.3199579 C36.1540432,6.3199579 35.076712,6.93371025 33.9928514,8.16121496 C32.9089909,9.38871967 31.910011,11.1255083 30.9959117,13.3715807 C30.4213351,14.7819053 29.9251098,16.2966983 29.5072358,17.9159598 C29.0893619,19.5352214 28.7694271,21.1871293 28.5474316,22.8716837 C28.3254361,24.556238 28.2144383,26.1820288 28.2144383,27.7490561 C28.2144383,29.8384258 28.3450239,31.6209194 28.6061951,33.0965367 C28.8673663,34.5721541 29.2199475,35.6756025 29.6639385,36.4068819 C30.1079296,37.1381613 30.5584499,37.6539744 31.0154996,37.9543213 C31.4725492,38.2546682 31.9753038,38.4048417 32.5237633,38.4048417 Z M31.3484929,24.3799474 C31.6880155,20.645199 32.5759976,17.0671534 34.0124393,13.6458105 C34.5347817,12.3921886 35.076712,11.3017988 35.6382301,10.374641 C36.1997482,9.4474832 36.6698564,8.80108444 37.0485546,8.43544474 C37.4272529,8.06980504 37.708012,7.88698519 37.8908318,7.88698519 C38.0475345,7.88698519 38.1781201,7.95227799 38.2825886,8.0828636 C38.5176427,8.37015194 38.5829355,8.89249437 38.478467,9.64989089 C38.2172958,11.3213867 37.3684894,13.5805177 35.9320477,16.4272839 C34.495606,19.2740502 32.9677544,21.924938 31.3484929,24.3799474 Z M49.64751,35.1140844 C50.6660778,35.1140844 51.8282897,34.3044536 53.1341457,32.6851921 C53.1602629,32.6851921 53.1733214,32.6786628 53.1733214,32.6656042 L53.1733214,32.6460164 L53.2516728,32.6068407 C53.2516728,32.5807236 53.2647314,32.5546065 53.2908485,32.5284893 C54.1265964,31.4576873 55.2104569,29.7861916 56.5424301,27.514002 L56.8166599,27.0438938 C56.9733626,26.7827226 56.9145991,26.5737856 56.6403693,26.4170829 C56.3661395,26.2603802 56.1506733,26.3126144 55.9939705,26.5737856 L55.7197408,27.0438938 C54.4138847,29.3160834 53.3561413,30.961462 52.5465105,31.9800298 L52.5073348,31.9800298 L52.4681591,32.0583811 C51.7107626,32.9463633 51.2145373,33.42953 50.9794832,33.5078814 C50.5616093,33.5339985 50.2090281,33.3772958 49.9217398,33.0377732 C49.529983,32.5415479 49.2949289,31.7188586 49.2165775,30.5697052 C49.1382262,29.4205519 49.1774018,28.25834 49.3341046,27.0830695 C49.4908073,25.907799 49.6997443,24.8108799 49.9609155,23.7923122 C50.0915011,23.3483211 50.0588547,22.9696229 49.8629763,22.6562174 C49.6670979,22.3428119 49.3863388,22.133875 49.0206991,22.0294065 C48.785645,21.9771722 48.5440616,21.9641137 48.295949,21.9902308 C48.0478363,22.0163479 47.8127822,22.1012286 47.5907867,22.2448727 C47.3687912,22.3885169 47.2316763,22.577866 47.179442,22.8129201 L47.1402664,22.8129201 C47.0880321,22.7606859 47.0357979,22.7215102 46.9835636,22.6953931 C46.4351041,22.1991678 45.6515904,21.9510551 44.6330227,21.9510551 C43.1704639,21.9510551 41.7274929,22.8390373 40.3041098,24.6150015 C38.8807267,26.3909658 38.1690351,28.3366913 38.1690351,30.4521782 C38.1690351,32.0453226 38.5020284,33.220593 39.168015,33.9779896 C39.8340016,34.7353861 40.610986,35.1140844 41.4989681,35.1140844 C43.0659954,35.1140844 44.4240857,34.0563409 45.5732391,31.9408541 C45.8344103,31.4446288 46.0825229,30.8961692 46.317577,30.2954754 C46.4481626,31.914737 46.8007438,33.1291831 47.3753205,33.9388139 C47.9498971,34.7223275 48.7072936,35.1140844 49.64751,35.1140844 Z M42.3608331,33.6645841 C42.0735448,33.6645841 41.7927857,33.4099422 41.518556,32.9006583 C41.2443262,32.3913744 41.1072113,31.6796829 41.1072113,30.7655836 C41.1072113,29.0157365 41.5969073,27.4160628 42.5762994,25.9665626 C43.5556914,24.5170623 44.5546713,23.648668 45.5732391,23.3613797 C45.9127616,23.2830283 46.1869914,23.2960869 46.3959284,23.4005554 C46.5003969,23.5050238 46.5918068,23.6094923 46.6701582,23.7139608 C46.7223924,23.7923122 46.7746267,23.8837221 46.8268609,23.9881906 C46.5918068,25.0851097 46.4351041,26.2473216 46.3567527,27.4748263 C46.3306356,27.5009434 46.3110477,27.5401191 46.2979892,27.5923534 C46.2849306,27.6445876 46.2784013,27.6837633 46.2784013,27.7098804 C45.7299418,29.3552591 45.2206579,30.5958223 44.7505497,31.4315702 L44.7505497,31.4707459 C44.4371443,32.0714397 44.058446,32.5872529 43.614455,33.0181854 C43.1704639,33.4491179 42.7525899,33.6645841 42.3608331,33.6645841 Z M72.530082,38.4048417 C73.3397128,38.4048417 74.2146363,37.8433236 75.1548527,36.7202873 C75.1809698,36.6941702 75.1940284,36.6680531 75.1940284,36.641936 C75.4029654,36.432999 75.5988438,36.1848863 75.7816636,35.897598 C75.8077807,35.8714809 75.8208393,35.8584223 75.8208393,35.8584223 C77.0744611,34.0824581 78.5239614,31.2879261 80.16934,27.4748263 C80.2738085,27.2397722 80.3391013,27.0830695 80.3652184,27.0047181 C80.4958041,26.7174298 80.4174527,26.5150221 80.1301644,26.3974951 C79.842876,26.279968 79.633939,26.3648487 79.5033534,26.652137 C79.5033534,26.6782541 79.4902949,26.7109005 79.4641778,26.7500762 C79.4380606,26.7892519 79.4119435,26.8480154 79.3858264,26.9263668 C79.3597093,27.0047181 79.3335921,27.0700109 79.307475,27.1222452 C77.7665649,30.7002908 76.3823574,33.3772958 75.1548527,35.15326 C75.1287356,35.1793772 75.115677,35.1924357 75.115677,35.1924357 L75.115677,35.2316114 C74.8806229,35.5450169 74.6586274,35.8323052 74.4496904,36.0934764 C74.0056994,36.5897017 73.6661768,36.8378144 73.4311227,36.8378144 C73.3005371,36.8378144 73.2091272,36.7986387 73.1568929,36.7202873 C73.0263073,36.5897017 72.9479559,36.3415891 72.9218388,35.9759494 C72.8957217,35.6103097 72.9218388,35.1140844 73.0001902,34.4872734 C73.0785415,33.8604625 73.1568929,33.3315908 73.2352443,32.9006583 C73.3135956,32.4697258 73.4311227,31.8494442 73.5878254,31.0398134 C73.8751138,29.5250204 74.0775214,28.3693377 74.1950485,27.5727655 C74.3125755,26.7761933 74.3452219,25.8751526 74.2929877,24.8696434 C74.2407535,23.8641343 74.0187579,23.1263256 73.6270011,22.6562174 C73.2352443,22.1599921 72.6867847,21.9118794 71.9816224,21.9118794 C69.8661356,21.9118794 67.9987614,24.3668889 66.3794999,29.2769077 C66.4317341,25.8816819 65.9877431,23.6617266 65.0475267,22.6170417 C64.6035356,22.1208164 64.0811932,21.8727038 63.4804994,21.8727038 C62.6708686,21.8727038 61.9134721,22.2383435 61.2083098,22.9696229 C60.7382016,23.4919653 60.3072691,24.1971276 59.9155123,25.0851097 C59.9024537,25.1112268 59.8926598,25.1308147 59.8861305,25.1438732 L59.8763366,25.1634611 C59.8502195,25.1895782 59.8371609,25.2156953 59.8371609,25.2418124 C59.1058815,26.9655424 58.6227148,28.9896194 58.3876607,31.3140432 C57.9436696,28.8329166 58.022021,26.325673 58.6227148,23.7923122 C58.7271833,23.3483211 58.6814783,22.9696229 58.4855999,22.6562174 C58.2897215,22.3428119 58.0089624,22.133875 57.6433227,22.0294065 C57.277683,21.924938 56.9055141,21.9379966 56.5268158,22.0685822 C56.1481175,22.1991678 55.9065342,22.4472804 55.8020657,22.8129201 C55.3319575,24.066542 55.1360791,25.8686233 55.2144304,28.2191643 C55.2927818,30.5697052 55.6453629,32.3979037 56.2721739,33.7037598 C56.4027595,33.9910481 56.5921086,34.2456901 56.8402212,34.4676856 C57.0883339,34.6896811 57.3495051,34.8529131 57.6237349,34.9573816 C57.8979647,35.0618501 58.1656652,35.1140844 58.4268364,35.1140844 C58.5835391,35.1140844 58.7271833,35.0879672 58.8577689,35.035733 C58.9883545,34.9834988 59.092823,34.8920888 59.1711743,34.7615032 C59.2495257,34.6831519 59.2756428,34.5786834 59.2495257,34.4480978 L59.2495257,34.291395 C59.1711743,32.9071876 59.2625843,31.4054531 59.5237555,29.7861916 C59.7849267,28.16693 60.1766835,26.7566055 60.699026,25.5552179 C61.2736026,24.4321817 61.7567694,23.8706635 62.1485262,23.8706635 C62.2791118,23.8706635 62.4096974,23.9228978 62.540283,24.0273663 C63.3499138,24.8892313 63.6502607,27.6184705 63.4413237,32.2150839 C63.4152066,32.7374263 63.447853,33.1879466 63.5392629,33.5666449 C63.6306728,33.9453432 63.7547292,34.2130437 63.9114319,34.3697464 C64.0681346,34.5264491 64.2117788,34.6374469 64.3423644,34.7027397 C64.47295,34.7680325 64.6165942,34.8137375 64.7732969,34.8398546 C65.0867024,34.8659717 65.3739907,34.7745618 65.6351619,34.5656248 C65.8963331,34.3566878 66.0530359,34.1085752 66.1052701,33.8212868 L66.1052701,33.7821112 C66.8104324,30.8569936 67.6004753,28.4738062 68.4753989,26.6325491 C69.3503225,24.7912921 70.1403654,23.8706635 70.8455277,23.8706635 C70.9499961,23.8706635 71.0414061,23.9098392 71.1197574,23.9881906 C71.1981088,24.0926591 71.2634016,24.2493618 71.3156358,24.4582988 C71.3678701,24.6672358 71.3939872,24.9349363 71.3939872,25.2614003 C71.3939872,25.5878643 71.3874579,25.8947405 71.3743994,26.1820288 C71.3613408,26.4693171 71.3221651,26.861074 71.2568723,27.3572993 C71.1915795,27.8535246 71.1393453,28.2452814 71.1001696,28.5325697 C71.0609939,28.8198581 71.0022304,29.2246735 70.923879,29.7470159 C70.6888249,31.2095747 70.5255929,32.3260816 70.434183,33.0965367 C70.3427731,33.8669918 70.3362438,34.7288568 70.4145952,35.6821318 C70.4929465,36.6354067 70.714942,37.3275104 71.0805818,37.7584429 C71.4462215,38.1893754 71.9293882,38.4048417 72.530082,38.4048417 Z M81.7991044,20.2469129 C82.2822711,20.36444 82.7197329,20.3709693 83.1114897,20.2665008 C83.5032466,20.1359152 83.7317714,19.9335075 83.7970642,19.6592777 C83.862357,19.3850479 83.7448299,19.1042889 83.444483,18.8170005 C83.1441361,18.5297122 82.74585,18.3338338 82.2496247,18.2293653 C81.7533994,18.1248968 81.3159376,18.1314261 80.9372394,18.2489531 C80.5585411,18.3664802 80.3365456,18.5623586 80.2712528,18.8365884 C80.20596,19.1108182 80.323487,19.3850479 80.6238339,19.6592777 C80.9241808,19.9335075 81.3159376,20.1293859 81.7991044,20.2469129 Z M82.1320977,35.1140844 C83.1506654,35.1140844 84.3128773,34.3044536 85.6187334,32.6851921 C85.6448505,32.6590749 85.6579091,32.6460164 85.6579091,32.6460164 L85.7362604,32.6068407 C85.7362604,32.5807236 85.749319,32.5546065 85.7754361,32.5284893 C86.5850669,31.4838045 87.6689274,29.8123087 89.0270178,27.514002 L89.3012475,27.0438938 C89.4579503,26.7827226 89.3991867,26.5737856 89.124957,26.4170829 C88.8507272,26.2603802 88.6352609,26.3126144 88.4785582,26.5737856 L88.2043284,27.0438938 C86.8723552,29.3160834 85.8015533,30.961462 84.9919225,31.9800298 L84.9527468,32.0583811 C84.1953503,32.9463633 83.699125,33.42953 83.4640709,33.5078814 C83.0200798,33.5078814 82.6674987,33.3511787 82.4063275,33.0377732 C82.0145706,32.5415479 81.7795165,31.7188586 81.7011652,30.5697052 C81.6228138,29.4205519 81.6619895,28.25834 81.8186922,27.0830695 C81.975395,25.907799 82.1843319,24.8108799 82.4455031,23.7923122 C82.5760887,23.3483211 82.5434423,22.9696229 82.3475639,22.6562174 C82.1516855,22.3428119 81.8709265,22.133875 81.5052868,22.0294065 C81.1396471,21.924938 80.7674781,21.9379966 80.3887798,22.0685822 C80.0100816,22.1991678 79.7554396,22.4472804 79.624854,22.8129201 C79.3636828,23.6225509 79.1416873,24.6933529 78.9588674,26.0253261 C78.7760476,27.3572993 78.7368719,28.8067995 78.8413404,30.3738268 C78.9458089,31.9408541 79.2853314,33.1291831 79.8599081,33.9388139 C80.4344848,34.7223275 81.1918813,35.1140844 82.1320977,35.1140844 Z M91.7341134,38.4048417 C92.1258702,38.4048417 92.5437441,38.3134317 92.9877352,38.1306119 L93.1444379,38.0522605 C93.797366,37.7388551 94.4894697,37.2295712 95.2207491,36.5244089 C95.9520285,35.8192466 96.709425,34.9247352 97.4929387,33.8408747 C98.2764523,32.7570141 98.8902047,31.869032 99.3341957,31.1769283 C99.7781868,30.4848246 100.352763,29.564196 101.057926,28.4150427 C101.4758,27.7621147 101.763088,27.3181236 101.919791,27.0830695 C102.076493,26.8218983 102.024259,26.606432 101.763088,26.4366707 C101.501917,26.2669094 101.279921,26.3126144 101.097101,26.5737856 C100.966516,26.7827226 100.692286,27.2397722 100.274412,27.9449345 C99.6214841,29.0157365 99.0795538,29.8841308 98.6486213,30.5501174 C98.2176888,31.216104 97.6235243,32.0714397 96.8661277,33.1161246 C96.1087312,34.1608094 95.3905104,35.0292037 94.7114652,35.7213074 C94.0324201,36.4134112 93.3925506,36.9031072 92.7918568,37.1903955 C92.1128116,37.1642784 91.5186471,36.6223481 91.0093632,35.5646047 C90.5000794,34.5068613 90.2258496,33.0116561 90.1866739,31.0789891 C90.1474982,29.1463221 90.5980186,27.4487092 91.538235,25.9861504 C92.4784513,24.5235916 93.4578434,23.648668 94.4764111,23.3613797 C94.8420508,23.2569112 95.1293392,23.2699698 95.3382761,23.4005554 C95.4427446,23.5050238 95.5341545,23.6094923 95.6125059,23.7139608 C95.6647402,23.7923122 95.730033,23.8967807 95.8083843,24.0273663 C95.8606186,24.0796005 95.9128528,24.1448933 95.9650871,24.2232447 C96.1479069,24.4844159 96.3633732,24.5301209 96.6114858,24.3603596 C96.8595985,24.1905983 96.9053034,23.975132 96.7486007,23.7139608 C96.6702493,23.6094923 96.6180151,23.5441995 96.591898,23.5180824 C96.5135466,23.3613797 96.4351952,23.2438526 96.3568439,23.1655013 C96.2262583,22.9565643 96.0695555,22.786803 95.8867357,22.6562174 C95.3382761,22.1861092 94.5678211,21.9510551 93.5753704,21.9510551 C92.8963253,21.9510551 92.1715752,22.1861092 91.4011201,22.6562174 C90.630665,23.1263256 89.932032,23.7531365 89.3052211,24.5366501 C87.8426623,26.3909658 87.1113829,28.5195112 87.1113829,30.9222864 C87.1113829,32.3848452 87.2484977,33.638467 87.5227275,34.6831519 C87.7969573,35.7278367 88.1756556,36.5048211 88.6588223,37.0141049 C89.1419891,37.5233888 89.6316851,37.8824992 90.1279104,38.0914362 C90.6241357,38.3003732 91.1595367,38.4048417 91.7341134,38.4048417 Z M115.325487,54.2648498 C115.877911,54.2648498 116.373836,54.0765236 116.813264,53.6998713 C117.252691,53.323219 117.610511,52.7645181 117.886723,52.0237686 C118.162935,51.2830191 118.401481,50.4857717 118.602362,49.6320265 C118.803243,48.7782813 118.953904,47.7236548 119.054345,46.4681471 C119.154786,45.2126395 119.230116,44.0324622 119.280336,42.9276155 C119.330557,41.8227687 119.380777,40.5295958 119.430997,39.0480968 L119.577138,38.9019557 C119.63439,38.8447045 119.700178,38.7789159 119.774504,38.7045899 L120.023095,38.4559994 C120.114496,38.3645984 120.214434,38.26466 120.32291,38.1561841 L120.873458,37.605489 C121.856285,36.6211906 122.618417,35.8465522 123.159855,35.2815738 C123.737389,34.6789301 124.440473,33.8879602 125.269108,32.9086642 C126.097743,31.9293683 126.763162,30.9751824 127.265365,30.0461068 C127.767568,29.1170311 128.144221,28.1628452 128.395322,27.1835493 C128.470653,26.9073376 128.363934,26.7315665 128.075168,26.656236 C127.786401,26.5809056 127.604352,26.6813462 127.529022,26.9575579 C127.27792,27.8866336 126.913823,28.7905991 126.43673,29.6694544 C125.959637,30.5483098 125.319328,31.4648304 124.515803,32.4190163 C123.712278,33.3732021 123.034304,34.1390618 122.481881,34.7165953 C121.929458,35.2941288 121.113378,36.1102088 120.033641,37.1648353 L119.751152,37.4473245 C119.613046,37.5854303 119.506328,37.6795934 119.430997,37.7298137 C119.456107,37.1020599 119.468663,36.637522 119.468663,36.3362002 C119.970866,35.7837768 120.422848,35.1183578 120.824611,34.339943 L120.824611,34.3022778 L120.975272,34.0009559 C121.301704,33.3229818 121.584193,32.5947873 121.822739,31.8163726 C122.061286,31.0379578 122.230779,30.328596 122.33122,29.6882871 C122.431661,29.0479781 122.481881,28.4892772 122.481881,28.0121843 C122.481881,26.806897 122.312387,25.8715437 121.9734,25.2061247 C121.634413,24.5407056 121.144765,24.2079961 120.504456,24.2079961 C119.864147,24.2079961 119.318002,24.4528201 118.866019,24.9424681 C118.414036,25.432116 118.056216,26.0410373 117.79256,26.7692317 C117.528903,27.4974262 117.321744,28.4327794 117.171083,29.5752914 C117.020423,30.7178034 116.919982,31.7787073 116.869762,32.7580033 C116.819541,33.7372993 116.794431,34.8798113 116.794431,36.1855393 C116.54333,36.2106494 116.279673,36.2232045 116.003461,36.2232045 C114.17042,36.2232045 112.751696,35.319239 111.74729,33.5113079 C110.592223,31.4271652 110.01469,28.2130655 110.01469,23.869009 C110.01469,19.7007235 110.818215,16.1099716 112.425264,13.0967531 C113.078128,11.8914658 113.768658,10.9561126 114.496852,10.2906935 C115.225047,9.62527442 115.82769,9.29256489 116.304783,9.29256489 C116.957647,9.29256489 117.510071,9.66921719 117.962053,10.4225218 C118.414036,11.1758264 118.652583,12.0295716 118.677693,12.9837575 L118.677693,13.1720836 C118.677693,15.1306756 117.849058,16.8632762 116.191788,18.3698854 C115.965796,18.5707666 115.953241,18.7779254 116.154122,18.9913617 C116.355004,19.204798 116.56844,19.2110755 116.794431,19.0101943 C118.652583,17.327814 119.581658,15.3817771 119.581658,13.1720836 L119.581658,12.9460922 C119.556548,11.113051 119.154786,9.71315996 118.376371,8.74641905 C117.597956,7.77967814 116.66888,7.29630769 115.589144,7.29630769 C114.609848,7.29630769 113.611719,7.71062522 112.594758,8.53926029 C111.577797,9.36789535 110.654999,10.5104073 109.826364,11.9667962 C107.993322,15.3064467 107.076802,19.3240712 107.076802,24.0196699 C107.076802,27.1082188 107.396956,29.7071197 108.037265,31.8163726 C108.677574,33.9256255 109.619205,35.5201202 110.862157,36.5998568 C112.10511,37.6795934 113.643107,38.2194617 115.476148,38.2194617 C115.928131,38.2194617 116.367559,38.1566863 116.794431,38.0311356 L116.794431,40.4793755 C115.438483,41.9608746 114.383856,43.4109859 113.630552,44.8297096 C112.877247,46.2484333 112.500595,47.7236548 112.500595,49.2553742 C112.425264,50.3602209 112.575925,51.3018517 112.952578,52.0802664 C113.454781,53.5366553 114.245751,54.2648498 115.325487,54.2648498 Z M119.468663,34.7165953 C119.518883,31.5778261 119.606768,29.3555775 119.732319,28.0498495 C119.80765,27.1961043 119.914368,26.5244077 120.052474,26.0347597 C120.190579,25.5451117 120.29102,25.2689 120.353795,25.2061247 C120.416571,25.1433493 120.473069,25.1119616 120.523289,25.1119616 C120.874831,25.1119616 121.138488,25.3944508 121.314259,25.9594293 C121.49003,26.5244077 121.577915,27.2086594 121.577915,28.0121843 C121.577915,28.8157092 121.433532,29.7950052 121.144765,30.9500723 C120.855999,32.1051393 120.435403,33.1597658 119.88298,34.1139516 C119.757429,34.339943 119.619323,34.5408242 119.468663,34.7165953 Z M114.91117,52.494584 C114.559628,52.494584 114.270861,52.3815883 114.044869,52.1555969 C113.919319,52.004936 113.818878,51.8291649 113.743548,51.6282837 C113.517556,50.9251994 113.40456,50.1342295 113.40456,49.2553742 C113.40456,46.9452401 114.534517,44.4718899 116.794431,41.8353238 C116.769321,44.4216696 116.66888,46.4932573 116.493109,48.0500868 C116.191788,51.0130849 115.664474,52.494584 114.91117,52.494584 Z M129.905752,35.0179171 C130.056413,35.0179171 130.194518,34.992807 130.320069,34.9425867 C130.546061,34.8421461 130.671611,34.666375 130.696721,34.4152735 L130.696721,34.3776082 C130.998043,31.5401609 131.512801,29.1421412 132.240996,27.1835493 L132.240996,27.145884 C133.069631,25.1621819 133.835491,24.1703308 134.538575,24.1703308 C134.789676,24.1703308 134.990558,24.2456613 135.141219,24.3963222 C135.29188,24.5469831 135.480206,24.8231948 135.706197,25.2249573 C135.856858,25.501169 135.976131,25.7083277 136.064017,25.8464336 C136.151902,25.9845394 136.302563,26.1728656 136.516,26.411412 C136.729436,26.6499585 136.942872,26.8320071 137.156308,26.9575579 C137.369745,27.0831086 137.652234,27.1961043 138.003776,27.2965449 C138.355318,27.3969856 138.731971,27.4472059 139.133733,27.4472059 L142.636599,27.4472059 C142.76215,27.4472059 142.868868,27.4032631 142.956754,27.3153776 C143.044639,27.227492 143.088582,27.1207739 143.088582,26.9952231 C143.088582,26.8696723 143.044639,26.7629542 142.956754,26.6750686 C142.868868,26.5871831 142.76215,26.5432403 142.636599,26.5432403 L140.979329,26.5432403 C140.703118,26.5432403 140.458294,26.4302446 140.244857,26.2042533 C140.031421,25.9782619 139.761487,25.6016096 139.435055,25.0742964 C139.209064,24.6474238 139.01446,24.3209918 138.851244,24.0950004 C138.688028,23.869009 138.449481,23.5927973 138.135604,23.2663653 C137.821728,22.9399333 137.45763,22.7013869 137.043313,22.5507259 C136.628995,22.400065 136.15818,22.3247346 135.630867,22.3247346 C134.877562,22.3247346 134.136813,22.7013869 133.408618,23.4546915 C132.680424,24.2079961 132.02756,25.3128428 131.450026,26.7692317 C131.450026,26.7692317 131.443749,26.7817868 131.431193,26.806897 C131.418638,26.8320071 131.412361,26.8508397 131.412361,26.8633948 L131.412361,26.8822274 C130.834827,28.3888366 130.382845,30.1716575 130.056413,32.2306901 C129.403549,29.6192341 129.416104,26.9073376 130.094078,24.0950004 C130.169408,23.7936785 130.169408,23.5237444 130.094078,23.2851979 C130.018747,23.0466515 129.899474,22.8583253 129.736258,22.7202195 C129.573042,22.5821136 129.378438,22.4753955 129.152447,22.400065 C128.800905,22.2996244 128.443085,22.318457 128.078988,22.4565629 C127.714891,22.5946687 127.482622,22.8269376 127.382181,23.1533696 C126.930198,24.3837671 126.741872,26.1226453 126.817203,28.370004 C126.892533,30.6173627 127.23152,32.381351 127.834164,33.6619689 C128.035045,34.0386212 128.336367,34.3587756 128.73813,34.6224322 C129.139892,34.8860888 129.529099,35.0179171 129.905752,35.0179171 Z M145.389982,34.9802519 C145.841964,34.9802519 146.306502,34.8923664 146.783595,34.7165953 C146.833815,34.6914851 146.884036,34.666375 146.934256,34.6412648 C147.56201,34.3650532 148.196041,33.9570132 148.83635,33.4171449 C149.476659,32.8772766 150.123246,32.1930249 150.77611,31.3643898 C151.428974,30.5357547 151.943732,29.8640581 152.320384,29.3493 C152.697036,28.8345418 153.174129,28.1377351 153.751663,27.2588797 C153.902324,27.0077782 153.852103,26.8006194 153.601002,26.6374034 C153.3499,26.4741874 153.149019,26.5181302 152.998358,26.7692317 C152.571486,27.3969856 152.226221,27.8991886 151.962564,28.2758409 C151.698908,28.6524932 151.3097,29.186084 150.794942,29.8766132 C150.280184,30.5671424 149.821924,31.1321209 149.420161,31.5715486 C149.018399,32.0109763 148.553861,32.4504039 148.026548,32.8898316 C147.499234,33.3292593 147.009587,33.6494138 146.557604,33.850295 C145.90474,33.9758458 145.339761,33.850295 144.862668,33.4736427 C144.209804,32.9714396 143.883372,32.0172538 143.883372,30.6110852 C143.883372,30.1591024 143.895927,29.7322298 143.921038,29.3304674 C145.025884,28.8031542 146.036568,28.0937923 146.953089,27.2023819 C147.869609,26.3109714 148.340425,25.350508 148.365535,24.3209918 L148.365535,24.2833265 C148.365535,23.6304625 148.114433,23.1282595 147.61223,22.7767173 C147.185358,22.4753955 146.658044,22.3247346 146.030291,22.3247346 C144.674342,22.3247346 143.487887,22.9399333 142.470926,24.1703308 C141.453965,25.4007284 140.945484,27.0956637 140.945484,29.2551369 C140.945484,31.063068 141.4163,32.4692366 142.357931,33.4736427 C143.299561,34.4780488 144.310245,34.9802519 145.389982,34.9802519 Z M144.071699,28.2381757 C144.448351,26.154033 145.16399,24.7478644 146.218617,24.0196699 C146.595269,23.7685684 146.896591,23.6806828 147.122582,23.7560133 C147.348574,23.8313438 147.461569,24.0196699 147.461569,24.3209918 C147.436459,25.0240761 147.091195,25.7271604 146.425775,26.4302446 C145.760356,27.1333289 144.975664,27.7359726 144.071699,28.2381757 Z M156.090727,34.9802519 C156.54271,34.9802519 157.007248,34.8923664 157.484341,34.7165953 C157.534561,34.6914851 157.584781,34.666375 157.635002,34.6412648 C158.262756,34.3650532 158.896787,33.9570132 159.537096,33.4171449 C160.177405,32.8772766 160.823991,32.1930249 161.476855,31.3643898 C162.129719,30.5357547 162.644477,29.8640581 163.02113,29.3493 C163.397782,28.8345418 163.874875,28.1377351 164.452408,27.2588797 C164.603069,27.0077782 164.552849,26.8006194 164.301748,26.6374034 C164.050646,26.4741874 163.849765,26.5181302 163.699104,26.7692317 C163.272231,27.3969856 162.926967,27.8991886 162.66331,28.2758409 C162.399653,28.6524932 162.010446,29.186084 161.495688,29.8766132 C160.98093,30.5671424 160.522669,31.1321209 160.120907,31.5715486 C159.719144,32.0109763 159.254607,32.4504039 158.727293,32.8898316 C158.19998,33.3292593 157.710332,33.6494138 157.258349,33.850295 C156.605485,33.9758458 156.040507,33.850295 155.563414,33.4736427 C154.91055,32.9714396 154.584118,32.0172538 154.584118,30.6110852 C154.584118,30.1591024 154.596673,29.7322298 154.621783,29.3304674 C155.72663,28.8031542 156.737314,28.0937923 157.653834,27.2023819 C158.570355,26.3109714 159.04117,25.350508 159.066281,24.3209918 L159.066281,24.2833265 C159.066281,23.6304625 158.815179,23.1282595 158.312976,22.7767173 C157.886103,22.4753955 157.35879,22.3247346 156.731036,22.3247346 C155.375088,22.3247346 154.188633,22.9399333 153.171672,24.1703308 C152.154711,25.4007284 151.64623,27.0956637 151.64623,29.2551369 C151.64623,31.063068 152.117046,32.4692366 153.058676,33.4736427 C154.000307,34.4780488 155.010991,34.9802519 156.090727,34.9802519 Z M154.772444,28.2381757 C155.149097,26.154033 155.864736,24.7478644 156.919362,24.0196699 C157.296015,23.7685684 157.597337,23.6806828 157.823328,23.7560133 C158.049319,23.8313438 158.162315,24.0196699 158.162315,24.3209918 C158.137205,25.0240761 157.79194,25.7271604 157.126521,26.4302446 C156.461102,27.1333289 155.67641,27.7359726 154.772444,28.2381757 Z M168.147421,38.1817965 C169.101607,38.1817965 169.942797,37.1397251 170.670992,35.0555824 L170.708657,35.0555824 L170.708657,35.0179171 C170.909538,34.4152735 171.223415,33.3857572 171.650288,31.9293683 C172.278042,29.6945646 172.805355,28.1126249 173.232227,27.1835493 C173.332668,26.9073376 173.25106,26.7127339 172.987403,26.5997382 C172.723747,26.4867425 172.529143,26.5683505 172.403592,26.8445622 C171.97672,27.798748 171.436851,29.4183529 170.783987,31.7033769 C170.357115,33.1597658 170.030683,34.1892821 169.804691,34.7919258 C169.402929,35.8716624 169.076497,36.4115307 168.825395,36.4115307 C168.775175,36.4115307 168.706122,36.3864205 168.618237,36.3362002 C168.530351,36.2859799 168.429911,36.2043719 168.316915,36.0913762 C168.203919,35.9783805 168.078368,35.8339971 167.940263,35.6582261 C167.802157,35.482455 167.664051,35.2501861 167.525945,34.9614193 C167.387839,34.6726525 167.249733,34.3462205 167.111627,33.9821233 C166.973522,33.6180261 166.847971,33.1785984 166.734975,32.6638403 C166.62198,32.1490821 166.515261,31.5903812 166.414821,30.9877375 C166.31438,30.3850938 166.23905,29.6882871 166.188829,28.8973172 C166.138609,28.1063474 166.113499,27.2588797 166.113499,26.3549142 C166.113499,23.4421364 166.3646,20.7176847 166.866803,18.1815592 C168.775175,18.0308983 171.323856,17.4659199 174.512845,16.4866239 C175.768353,16.0848614 176.766482,15.7835396 177.507231,15.5826583 C178.247981,15.3817771 179.239832,15.1808959 180.482784,14.9800147 C181.725737,14.7791334 182.937302,14.6786928 184.117479,14.6786928 C185.372987,14.6786928 186.597107,14.9046842 187.789839,15.356667 C188.982571,15.8086497 189.774671,16.3820301 190.382097,16.8685395 C190.669798,17.0195585 190.851159,16.9955202 191.061776,16.8081392 C191.272394,16.6207582 191.072591,16.2368456 190.835867,16.0611963 C190.273751,15.6301611 189.62288,15.124398 188.279487,14.5845297 C186.936094,14.0446614 185.548758,13.7747273 184.117479,13.7747273 C182.887081,13.7747273 181.631574,13.8814454 180.350956,14.0948817 C179.070338,14.3083181 178.059654,14.5154768 177.318905,14.716358 C176.578155,14.9172393 175.554917,15.2185611 174.249189,15.6203236 C171.21086,16.5745094 168.81284,17.1269328 167.05513,17.2775937 C167.582443,14.9925697 168.423633,12.6573255 169.5787,10.2718609 C169.729361,9.94542888 169.842357,9.7194375 169.917687,9.59388673 C170.143679,8.99124305 170.219009,8.52042767 170.143679,8.1814406 C170.068348,7.84245353 169.892577,7.59762953 169.616365,7.44696861 C169.315043,7.27119753 168.988611,7.25236492 168.637069,7.39047076 C168.285527,7.52857661 167.99676,7.78595568 167.770769,8.16260798 C166.26416,10.5480726 165.109093,13.6115113 164.305568,17.3529242 C162.547857,17.2022632 161.091468,16.4740688 159.936401,15.1683408 C159.73552,14.9423494 159.522084,14.9297943 159.296092,15.1306756 C159.070101,15.3315568 159.057546,15.5449931 159.258427,15.7709845 C160.539045,17.2273734 162.171205,18.0434534 164.154907,18.2192245 C163.627594,20.9060109 163.363937,23.7434582 163.363937,26.7315665 C163.363937,30.2720981 163.84103,33.0656027 164.795216,35.1120802 C165.749402,37.1585577 166.866803,38.1817965 168.147421,38.1817965 Z M174.610829,20.686297 C175.075366,20.7992927 175.495962,20.8055703 175.872614,20.7051297 C176.249266,20.5795789 176.46898,20.3849752 176.531755,20.1213186 C176.594531,19.857662 176.481535,19.5877278 176.192768,19.3115161 C175.904002,19.0353044 175.521072,18.8469783 175.043979,18.7465377 C174.566886,18.6460971 174.146291,18.6523746 173.782194,18.7653703 C173.418096,18.878366 173.20466,19.0666921 173.141885,19.3303487 C173.079109,19.5940054 173.192105,19.857662 173.480872,20.1213186 C173.769639,20.3849752 174.146291,20.5733013 174.610829,20.686297 Z M174.930983,34.9802519 C175.910279,34.9802519 177.027681,34.2018372 178.283189,32.6450076 C178.308299,32.6198975 178.320854,32.6073424 178.320854,32.6073424 L178.396184,32.5696772 C178.396184,32.544567 178.408739,32.5194569 178.43385,32.4943467 C179.212264,31.4899406 180.254336,29.8828908 181.560064,27.6731972 L181.82372,27.2212145 C181.974381,26.9701129 181.917883,26.7692317 181.654227,26.6185708 C181.39057,26.4679099 181.183411,26.5181302 181.03275,26.7692317 L180.769094,27.2212145 C179.488476,29.4057978 178.45896,30.9877375 177.680545,31.9670335 L177.64288,32.042364 C176.914685,32.8961092 176.437592,33.360647 176.211601,33.4359775 C175.784728,33.4359775 175.445741,33.2853166 175.19464,32.9839947 C174.817987,32.5069018 174.591996,31.715932 174.516666,30.6110852 C174.441335,29.5062385 174.479,28.3888366 174.629661,27.2588797 C174.780322,26.1289228 174.981203,25.0742964 175.232305,24.0950004 C175.357856,23.6681278 175.326468,23.3040305 175.138142,23.0027087 C174.949816,22.7013869 174.679882,22.5005056 174.328339,22.400065 C173.976797,22.2996244 173.618978,22.3121795 173.25488,22.4377302 C172.890783,22.563281 172.645959,22.8018275 172.520408,23.1533696 C172.269307,23.9317844 172.055871,24.9613007 171.880099,26.2419185 C171.704328,27.5225363 171.666663,28.9161498 171.767104,30.4227591 C171.867544,31.9293683 172.193976,33.0718802 172.7464,33.850295 C173.298823,34.6035996 174.027018,34.9802519 174.930983,34.9802519 Z M190.603539,38.1441313 C191.381954,38.1441313 192.223144,37.604263 193.12711,36.5245264 C193.15222,36.474306 193.164775,36.4491959 193.164775,36.4491959 C193.365656,36.2483147 193.553982,36.0097682 193.729753,35.7335565 C193.729753,35.7084464 193.742308,35.6833362 193.767419,35.6582261 C194.972706,33.9507356 196.366319,31.2765043 197.948259,27.635532 C198.0487,27.4095406 198.111475,27.2588797 198.136585,27.1835493 C198.262136,26.9073376 198.186806,26.7064563 197.910594,26.5809056 C197.634382,26.4553548 197.433501,26.5306853 197.30795,26.806897 C197.25773,26.9324477 197.194954,27.0956637 197.119624,27.2965449 C195.638125,30.736636 194.307287,33.3104267 193.12711,35.0179171 C193.101999,35.0430273 193.089444,35.0555824 193.089444,35.0555824 L193.089444,35.0932476 C192.863453,35.3945694 192.650017,35.6707811 192.449135,35.9218827 C192.022263,36.3989756 191.695831,36.637522 191.46984,36.637522 C191.344289,36.637522 191.256403,36.5998568 191.206183,36.5245264 C191.055522,36.3738654 190.961359,36.1227639 190.923694,35.7712217 C190.886028,35.4196796 190.892306,34.9425867 190.942526,34.339943 C190.992747,33.7372993 191.042967,33.2288187 191.093187,32.8145012 C191.143408,32.4001836 191.231293,31.8163726 191.356844,31.063068 C191.557725,29.6066791 191.702108,28.4955548 191.789994,27.7296951 C191.877879,26.9638354 191.877879,26.0975351 191.789994,25.1307942 C191.702108,24.1640533 191.46984,23.4546915 191.093187,23.0027087 C190.691425,22.5256158 190.151556,22.2870693 189.473582,22.2870693 C188.218075,22.2870693 187.075563,23.2287001 186.046046,25.1119616 C186.020936,25.1370717 186.008381,25.1621819 186.008381,25.1872921 C185.732169,25.664385 185.481068,26.2168083 185.255077,26.8445622 C185.255077,26.8696723 185.242521,26.8822274 185.217411,26.8822274 C184.664988,28.3888366 184.22556,30.1716575 183.899128,32.2306901 C183.246264,29.6192341 183.258819,26.9073376 183.936793,24.0950004 C184.037234,23.6681278 183.993291,23.3040305 183.804965,23.0027087 C183.616639,22.7013869 183.346705,22.5005056 182.995163,22.400065 C182.643621,22.2996244 182.285801,22.3121795 181.921704,22.4377302 C181.557606,22.563281 181.325337,22.8018275 181.224897,23.1533696 C180.772914,24.358657 180.584588,26.0912576 180.659918,28.3511714 C180.735249,30.6110852 181.074236,32.3687959 181.67688,33.6243036 C181.877761,34.0260661 182.179083,34.3524981 182.580845,34.6035996 C182.982608,34.8547011 183.371815,34.9802519 183.748467,34.9802519 C183.899128,34.9802519 184.037234,34.9551418 184.162785,34.9049215 C184.413886,34.8044808 184.539437,34.6161547 184.539437,34.339943 C184.890979,30.899852 185.556398,28.1377351 186.535694,26.0535923 C186.585915,26.003372 186.62358,25.9405967 186.64869,25.8652662 C187.226224,24.7353093 187.803757,24.1703308 188.381291,24.1703308 C188.506841,24.1703308 188.594727,24.2079961 188.644947,24.2833265 C188.745388,24.3837671 188.826996,24.5344281 188.889771,24.7353093 C188.952547,24.9361905 188.983934,25.1998471 188.983934,25.5262791 L188.983934,26.4302446 C188.983934,26.7064563 188.965102,27.0768311 188.927436,27.5413689 C188.889771,28.0059068 188.858384,28.3762815 188.833273,28.6524932 C188.808163,28.9287049 188.770498,29.3304674 188.720278,29.8577806 C188.469176,31.3392797 188.349903,32.8458889 188.362458,34.3776082 C188.375013,35.9093276 188.644947,36.963954 189.17226,37.5414876 C189.548913,37.94325 190.026006,38.1441313 190.603539,38.1441313 Z M200.061332,54.302515 C200.864857,54.302515 201.593052,53.963528 202.245916,53.2855538 C203.174991,52.3564781 203.965961,50.6929305 204.618825,48.2949108 C205.271689,45.8968911 205.748782,43.4360961 206.050104,40.9125257 C206.351426,38.3889552 206.564862,35.6582261 206.690413,32.7203381 C208.448124,31.063068 210.406716,29.3932428 212.566189,27.7108625 C212.79218,27.5350914 212.942841,27.4220957 213.018172,27.3718754 C213.269273,27.1709942 213.300661,26.9575579 213.112335,26.7315665 C212.924008,26.5055751 212.704295,26.480465 212.453193,26.656236 C212.402973,26.7064563 212.264867,26.819452 212.038876,26.9952231 C210.105394,28.4767222 208.347683,29.9582212 206.765743,31.4397203 C206.866184,28.6776034 206.891294,26.2042533 206.841074,24.0196699 C206.815964,23.4170262 206.627637,22.9650435 206.276095,22.6637216 C205.974773,22.4126201 205.623231,22.3121795 205.221469,22.3623998 C204.669045,22.4377302 204.292393,22.7516072 204.091512,23.3040305 C203.614419,22.8771579 202.97411,22.6637216 202.170585,22.6637216 C200.764417,22.6637216 199.421023,23.460969 198.140406,25.0554637 C196.859788,26.6499585 196.219479,28.4641671 196.219479,30.4980895 C196.219479,32.0298089 196.539633,33.1597658 197.179942,33.8879602 C197.820251,34.6161547 198.567278,34.9802519 199.421023,34.9802519 C200.902522,34.9802519 202.18314,34.0009559 203.262877,32.042364 C203.287987,31.9921436 203.313097,31.9544784 203.338207,31.9293683 C203.564199,31.4773855 203.79019,30.9751824 204.016182,30.4227591 C203.991071,31.728487 203.953406,33.0091049 203.903186,34.2646125 C198.981596,39.5377448 196.520801,44.4342247 196.520801,48.9540523 C196.520801,50.0588991 196.640074,50.9879748 196.87862,51.7412794 C197.117167,52.494584 197.431044,53.0470073 197.820251,53.3985495 C198.209459,53.7500916 198.579833,53.9886381 198.931375,54.1141889 C199.282918,54.2397396 199.65957,54.302515 200.061332,54.302515 Z M200.249658,33.5866384 C199.973447,33.5866384 199.703513,33.3418144 199.439856,32.8521664 C199.176199,32.3625184 199.044371,31.6782667 199.044371,30.7994114 C199.044371,29.1923615 199.421023,27.8740785 200.174328,26.8445622 C200.927633,25.8150459 201.731158,25.1872921 202.584903,24.9613007 C203.262877,24.7855296 203.752525,24.8985253 204.053847,25.3002877 L204.053847,27.6731972 C204.053847,27.6731972 204.047569,27.6983074 204.035014,27.7485277 C204.022459,27.798748 204.016182,27.8364132 204.016182,27.8615234 C203.463758,29.4434631 202.97411,30.6361954 202.547238,31.4397203 L202.547238,31.4773855 C202.346356,31.8540378 202.120365,32.1930249 201.869263,32.4943467 C201.618162,32.7956686 201.348228,33.0530476 201.059461,33.2664839 C200.770694,33.4799202 200.50076,33.5866384 200.249658,33.5866384 Z M199.044371,52.7582406 C198.717939,52.7582406 198.397785,52.4757514 198.083908,51.9107729 C197.770031,51.3457944 197.562872,50.6866529 197.462431,49.9333483 C197.437321,49.6320265 197.424766,49.3055945 197.424766,48.9540523 C197.424766,44.8862075 199.559129,40.4668204 203.827855,35.6958913 C203.275432,44.7104364 202.095255,50.1844499 200.287324,52.1179317 C199.885561,52.5448043 199.471244,52.7582406 199.044371,52.7582406 Z M215.206575,38.1441313 C215.95988,38.1441313 216.625299,37.9997479 217.202832,37.7109811 C217.780366,37.4222143 218.213516,37.0581171 218.502283,36.6186894 C218.79105,36.1792617 218.998208,35.7398341 219.123759,35.3004064 C219.24931,34.8609787 219.312085,34.4403836 219.312085,34.0386212 C219.312085,33.2350962 219.060984,32.4566815 218.558781,31.7033769 C221.170237,30.2720981 223.317155,28.8282643 224.999535,27.3718754 C225.225526,27.1709942 225.238082,26.9575579 225.0372,26.7315665 C224.836319,26.5055751 224.622883,26.49302 224.396891,26.6939013 C222.764731,28.1000699 220.630368,29.5313486 217.993802,30.9877375 C217.717591,30.6864157 217.278163,30.2720981 216.675519,29.7447849 C216.173316,29.3179123 215.802941,28.9789252 215.564395,28.7278237 C215.325848,28.4767222 215.087302,28.1440126 214.848756,27.7296951 C214.610209,27.3153776 214.490936,26.8947825 214.490936,26.4679099 C214.490936,25.9154865 214.76087,25.3567856 215.300738,24.7918071 C215.840607,24.2268287 216.612744,23.9443395 217.61715,23.9443395 C218.295124,23.9443395 219.010763,24.2456613 219.764068,24.848305 L219.801733,24.848305 L219.801733,24.8859702 L219.877064,24.8859702 C219.877064,24.9110804 219.889619,24.9236354 219.914729,24.9236354 L220.178386,24.9236354 L220.216051,24.8859702 L220.291381,24.8859702 L220.366712,24.8106397 L220.366712,24.7729745 L220.404377,24.7729745 L220.404377,24.7353093 L220.442042,24.6976441 L220.442042,24.6599788 C220.467152,24.6348687 220.479707,24.6160361 220.479707,24.603481 L220.479707,24.358657 C220.454597,24.3335468 220.442042,24.3084367 220.442042,24.2833265 C220.11561,23.6806828 219.600852,23.2098675 218.897768,22.8708804 C218.194683,22.5318933 217.378603,22.3623998 216.449528,22.3623998 C215.043359,22.3623998 213.882015,22.8206601 212.965494,23.7371807 C212.048973,24.6537013 211.590713,25.6016096 211.590713,26.5809056 C211.590713,27.1584391 211.666044,27.6920299 211.816704,28.1816779 C211.967365,28.6713258 212.212189,29.1170311 212.551176,29.5187935 C212.890164,29.920556 213.185208,30.2281554 213.436309,30.4415917 C213.687411,30.655028 214.038953,30.9375172 214.490936,31.2890593 C215.068469,31.715932 215.482787,32.054919 215.733888,32.3060206 C214.829923,32.8584439 214.151949,33.4045898 213.699966,33.9444581 C213.247983,34.4843264 213.021992,35.1058027 213.021992,35.808887 C213.021992,36.4366408 213.222873,36.9827867 213.624636,37.4473245 C214.026398,37.9118623 214.553711,38.1441313 215.206575,38.1441313 Z M215.206575,37.2401657 C214.804813,37.2401657 214.490936,37.0957823 214.264944,36.8070156 C214.038953,36.5182488 213.925957,36.1855393 213.925957,35.808887 C213.925957,35.2815738 214.120561,34.7982033 214.509768,34.3587756 C214.898976,33.9193479 215.507897,33.4610876 216.336532,32.9839947 C216.813625,33.6368587 217.052171,34.4027184 217.052171,35.2815738 C217.052171,35.5828956 216.983119,35.8779399 216.845013,36.1667067 C216.706907,36.4554734 216.506026,36.7002974 216.242369,36.9011787 C215.978712,37.1020599 215.671113,37.2150556 215.319571,37.2401657 L215.206575,37.2401657 Z" id="IslamicGreetings" fill="#FFFFFF" fill-rule="nonzero"></path>
                <g id="Paper-Plane" transform="translate(197.127467, 0.000000)" fill-rule="nonzero">
                    <polygon id="Top-left" fill="url(#linearGradient-1)" points="5.69942027e-14 5.17678188 17.6196021 -1.61740305e-14 4.82136103 7.00951719"></polygon>
                    <polygon id="In" fill="#B6B6B6" points="17.6196021 -8.47211122e-15 4.82136103 7.00951719 6.8766207 11.3889201"></polygon>
                    <polygon id="Top-right" fill="url(#linearGradient-2)" points="17.6196021 1.30932628e-14 7.41747851 7.92743016 11.518726 13.5585326"></polygon>
                    <polygon id="Path" fill="#929292" points="6.8766207 11.3889201 7.41747851 7.92743016 8.60427507 9.55618481"></polygon>
                </g>
                <path d="M62.3234795,51.302515 L62.3234795,46.341515 L63.9954795,46.341515 L63.9954795,45.472515 L62.3014795,45.472515 L62.3014795,44.966515 C62.3014795,44.295515 62.6204795,43.943515 63.2474795,43.943515 C63.5554795,43.943515 63.8414795,44.053515 64.0614795,44.218515 L64.3804795,43.415515 C64.0834795,43.184515 63.6434795,43.074515 63.1924795,43.074515 C61.9494795,43.074515 61.2674795,43.822515 61.2674795,44.955515 L61.2674795,45.472515 L60.2774795,45.472515 L60.2774795,46.341515 L61.2674795,46.341515 L61.2674795,51.302515 L62.3234795,51.302515 Z M67.2054795,51.368515 C68.9544795,51.368515 70.2304795,50.125515 70.2304795,48.387515 C70.2304795,46.649515 68.9544795,45.417515 67.2054795,45.417515 C65.4564795,45.417515 64.1694795,46.649515 64.1694795,48.387515 C64.1694795,50.125515 65.4564795,51.368515 67.2054795,51.368515 Z M67.2054795,50.444515 C66.0834795,50.444515 65.2364795,49.630515 65.2364795,48.387515 C65.2364795,47.144515 66.0834795,46.341515 67.2054795,46.341515 C68.3274795,46.341515 69.1634795,47.144515 69.1634795,48.387515 C69.1634795,49.630515 68.3274795,50.444515 67.2054795,50.444515 Z M72.5494795,51.302515 L72.5494795,48.398515 C72.5494795,47.122515 73.2534795,46.429515 74.3864795,46.429515 C74.4634795,46.429515 74.5404795,46.429515 74.6284795,46.440515 L74.6284795,45.417515 C73.6054795,45.417515 72.8794795,45.769515 72.5054795,46.451515 L72.5054795,45.472515 L71.4934795,45.472515 L71.4934795,51.302515 L72.5494795,51.302515 Z M81.1584795,51.368515 C82.1264795,51.368515 82.9294795,51.038515 83.4574795,50.422515 L82.8744795,49.740515 C82.4454795,50.213515 81.8734795,50.444515 81.1914795,50.444515 C80.0364795,50.444515 79.2114795,49.762515 79.0794795,48.739515 L83.8094795,48.739515 C83.8204795,48.640515 83.8314795,48.508515 83.8314795,48.420515 C83.8314795,46.627515 82.6324795,45.417515 80.9494795,45.417515 C79.2664795,45.417515 78.0234795,46.660515 78.0234795,48.387515 C78.0234795,50.125515 79.2774795,51.368515 81.1584795,51.368515 Z M82.8194795,47.980515 L79.0794795,47.980515 C79.1894795,46.990515 79.9374795,46.308515 80.9494795,46.308515 C81.9724795,46.308515 82.7094795,47.001515 82.8194795,47.980515 Z M87.5914795,51.302515 L90.1434795,45.472515 L89.1094795,45.472515 L87.0634795,50.147515 L85.0614795,45.472515 L83.9614795,45.472515 L86.5134795,51.302515 L87.5914795,51.302515 Z M93.3644795,51.368515 C94.3324795,51.368515 95.1354795,51.038515 95.6634795,50.422515 L95.0804795,49.740515 C94.6514795,50.213515 94.0794795,50.444515 93.3974795,50.444515 C92.2424795,50.444515 91.4174795,49.762515 91.2854795,48.739515 L96.0154795,48.739515 C96.0264795,48.640515 96.0374795,48.508515 96.0374795,48.420515 C96.0374795,46.627515 94.8384795,45.417515 93.1554795,45.417515 C91.4724795,45.417515 90.2294795,46.660515 90.2294795,48.387515 C90.2294795,50.125515 91.4834795,51.368515 93.3644795,51.368515 Z M95.0254795,47.980515 L91.2854795,47.980515 C91.3954795,46.990515 92.1434795,46.308515 93.1554795,46.308515 C94.1784795,46.308515 94.9154795,47.001515 95.0254795,47.980515 Z M98.3564795,51.302515 L98.3564795,48.398515 C98.3564795,47.122515 99.0604795,46.429515 100.193479,46.429515 C100.270479,46.429515 100.347479,46.429515 100.435479,46.440515 L100.435479,45.417515 C99.4124795,45.417515 98.6864795,45.769515 98.3124795,46.451515 L98.3124795,45.472515 L97.3004795,45.472515 L97.3004795,51.302515 L98.3564795,51.302515 Z M102.028479,53.502515 C102.919479,53.502515 103.590479,53.117515 104.107479,51.885515 L106.934479,45.472515 L105.900479,45.472515 L103.887479,50.136515 L101.852479,45.472515 L100.752479,45.472515 L103.326479,51.291515 L103.139479,51.698515 C102.853479,52.369515 102.534479,52.600515 102.028479,52.600515 C101.632479,52.600515 101.269479,52.446515 100.983479,52.171515 L100.532479,52.963515 C100.895479,53.315515 101.467479,53.502515 102.028479,53.502515 Z" id="forevery" fill="#FFDA2E" fill-rule="nonzero"></path>
                <path d="M128.082994,51.368515 C129.831994,51.368515 131.107994,50.125515 131.107994,48.387515 C131.107994,46.649515 129.831994,45.417515 128.082994,45.417515 C126.333994,45.417515 125.046994,46.649515 125.046994,48.387515 C125.046994,50.125515 126.333994,51.368515 128.082994,51.368515 Z M128.082994,50.444515 C126.960994,50.444515 126.113994,49.630515 126.113994,48.387515 C126.113994,47.144515 126.960994,46.341515 128.082994,46.341515 C129.204994,46.341515 130.040994,47.144515 130.040994,48.387515 C130.040994,49.630515 129.204994,50.444515 128.082994,50.444515 Z M134.911994,51.368515 C135.956994,51.368515 136.825994,50.928515 137.287994,50.114515 L136.484994,49.608515 C136.110994,50.180515 135.538994,50.444515 134.900994,50.444515 C133.756994,50.444515 132.898994,49.652515 132.898994,48.387515 C132.898994,47.144515 133.756994,46.341515 134.900994,46.341515 C135.538994,46.341515 136.110994,46.605515 136.484994,47.177515 L137.287994,46.660515 C136.825994,45.846515 135.956994,45.417515 134.911994,45.417515 C133.118994,45.417515 131.831994,46.649515 131.831994,48.387515 C131.831994,50.125515 133.118994,51.368515 134.911994,51.368515 Z M140.904994,51.368515 C141.949994,51.368515 142.818994,50.928515 143.280994,50.114515 L142.477994,49.608515 C142.103994,50.180515 141.531994,50.444515 140.893994,50.444515 C139.749994,50.444515 138.891994,49.652515 138.891994,48.387515 C138.891994,47.144515 139.749994,46.341515 140.893994,46.341515 C141.531994,46.341515 142.103994,46.605515 142.477994,47.177515 L143.280994,46.660515 C142.818994,45.846515 141.949994,45.417515 140.904994,45.417515 C139.111994,45.417515 137.824994,46.649515 137.824994,48.387515 C137.824994,50.125515 139.111994,51.368515 140.904994,51.368515 Z M146.149994,51.368515 C147.062994,51.368515 147.711994,51.060515 148.063994,50.532515 L148.063994,51.302515 L149.064994,51.302515 L149.064994,47.782515 C149.064994,46.187515 148.162994,45.417515 146.567994,45.417515 C145.632994,45.417515 144.763994,45.681515 144.158994,46.165515 L144.598994,46.957515 C145.049994,46.572515 145.753994,46.330515 146.446994,46.330515 C147.491994,46.330515 148.008994,46.847515 148.008994,47.738515 L148.008994,47.947515 L146.336994,47.947515 C144.598994,47.947515 143.993994,48.717515 143.993994,49.652515 C143.993994,50.664515 144.829994,51.368515 146.149994,51.368515 Z M146.325994,50.554515 C145.522994,50.554515 145.038994,50.191515 145.038994,49.608515 C145.038994,49.113515 145.335994,48.706515 146.380994,48.706515 L148.008994,48.706515 L148.008994,49.520515 C147.744994,50.191515 147.117994,50.554515 146.325994,50.554515 Z M152.494994,51.368515 C154.045994,51.368515 155.013994,50.697515 155.013994,49.641515 C155.013994,47.375515 151.317994,48.497515 151.317994,47.122515 C151.317994,46.660515 151.768994,46.319515 152.692994,46.319515 C153.264994,46.319515 153.847994,46.440515 154.375994,46.781515 L154.826994,45.945515 C154.320994,45.615515 153.462994,45.417515 152.703994,45.417515 C151.207994,45.417515 150.272994,46.121515 150.272994,47.166515 C150.272994,49.487515 153.957994,48.354515 153.957994,49.663515 C153.957994,50.158515 153.550994,50.455515 152.571994,50.455515 C151.812994,50.455515 151.020994,50.202515 150.525994,49.850515 L150.085994,50.686515 C150.569994,51.071515 151.526994,51.368515 152.494994,51.368515 Z M156.661994,44.350515 C157.079994,44.350515 157.376994,44.042515 157.376994,43.646515 C157.376994,43.272515 157.068994,42.975515 156.661994,42.975515 C156.254994,42.975515 155.946994,43.283515 155.946994,43.668515 C155.946994,44.053515 156.254994,44.350515 156.661994,44.350515 Z M157.189994,51.302515 L157.189994,45.472515 L156.133994,45.472515 L156.133994,51.302515 L157.189994,51.302515 Z M161.499994,51.368515 C163.248994,51.368515 164.524994,50.125515 164.524994,48.387515 C164.524994,46.649515 163.248994,45.417515 161.499994,45.417515 C159.750994,45.417515 158.463994,46.649515 158.463994,48.387515 C158.463994,50.125515 159.750994,51.368515 161.499994,51.368515 Z M161.499994,50.444515 C160.377994,50.444515 159.530994,49.630515 159.530994,48.387515 C159.530994,47.144515 160.377994,46.341515 161.499994,46.341515 C162.621994,46.341515 163.457994,47.144515 163.457994,48.387515 C163.457994,49.630515 162.621994,50.444515 161.499994,50.444515 Z M166.843994,51.302515 L166.843994,48.299515 C166.843994,47.034515 167.569994,46.363515 168.691994,46.363515 C169.692994,46.363515 170.264994,46.924515 170.264994,48.068515 L170.264994,51.302515 L171.320994,51.302515 L171.320994,47.947515 C171.320994,46.231515 170.319994,45.417515 168.900994,45.417515 C167.976994,45.417515 167.228994,45.758515 166.799994,46.352515 L166.799994,45.472515 L165.787994,45.472515 L165.787994,51.302515 L166.843994,51.302515 Z" id="occasion" fill="#FFDA2E" fill-rule="nonzero"></path>
                <path d="M201.720427,12.6332534 C201.030634,13.240403 198.994314,14.8337577 197.132094,14.3533271 C194.845641,13.7649098 195.299626,11.3208845 196.64946,11.3251988 C197.999293,11.3296998 198.436189,14.0179627 198.038389,15.3820684 C197.640589,16.7461742 196.53276,18.0109956 194.3117,17.9722269 C192.090641,17.9334581 190.890764,16.6515529 190.454166,16.2669008" id="Path" stroke="#FFFFFF" stroke-width="0.91" stroke-linecap="round" transform="translate(196.087296, 14.649147) rotate(-1.000000) translate(-196.087296, -14.649147) "></path>
            </g>
        </g>
    </g>
</svg>